$MeshFormat
4.1 0 8
$EndMeshFormat
$PhysicalNames
2
2 1 "outer_surface"
2 2 "inner_surface"
$EndPhysicalNames
$Entities
12 13 2 0
1 0.175 -0.075 0 0 
2 -0.175 -0.075 0 0 
3 0.175 0.075 0 0 
4 -0.175 0.075 0 0 
5 -0.175 0.02 0 0 
6 -0.15 0.02 0 0 
7 -0.15 0.05 0 0 
8 0.15 0.05 0 0 
9 0.15 -0.05 0 0 
10 -0.15 -0.05 0 0 
11 -0.15 -0.02 0 0 
12 -0.175 -0.02 0 0 
1 -0.1750001 -0.0750001 -1e-07 0.1750001 -0.07499989999999999 1e-07 0 2 1 -2 
2 0.1749999 -0.0750001 -1e-07 0.1750001 0.0750001 1e-07 0 2 3 -1 
3 -0.1750001 0.07499989999999999 -1e-07 0.1750001 0.0750001 1e-07 0 2 4 -3 
4 -0.1750001 0.0199999 -1e-07 -0.1749999 0.0750001 1e-07 0 2 5 -4 
5 -0.1750001 0.0199999 -1e-07 -0.1499999 0.0200001 1e-07 0 2 5 -6 
6 -0.1500001 0.0199999 -1e-07 -0.1499999 0.05000010000000001 1e-07 0 2 6 -7 
7 -0.1500001 0.0499999 -1e-07 0.1500001 0.05000010000000001 1e-07 0 2 7 -8 
8 0.1499999 -0.05000010000000001 -1e-07 0.1500001 0.05000010000000001 1e-07 0 2 8 -9 
9 -0.1500001 -0.05000010000000001 -1e-07 0.1500001 -0.0499999 1e-07 0 2 9 -10 
10 -0.1500001 -0.05000010000000001 -1e-07 -0.1499999 -0.0199999 1e-07 0 2 10 -11 
11 -0.1750001 -0.0200001 -1e-07 -0.1499999 -0.0199999 1e-07 0 2 11 -12 
12 -0.1750001 -0.0750001 -1e-07 -0.1749999 -0.0199999 1e-07 0 2 2 -12 
13 -0.1750001 -0.02000010000000001 -1.000000000069389e-07 -0.1749999 0.02000010000000001 1.000000000069389e-07 0 2 12 -5 
1 -0.1750001 -0.05000010000000001 -1.000000000069389e-07 0.1500001 0.05000010000000001 1.000000000069389e-07 0 8 10 11 13 5 6 7 8 9 
2 -0.1750001 -0.0750001 -1e-07 0.1750001 0.0750001 1e-07 0 12 1 12 -11 -10 -9 -8 -7 -6 -5 4 3 2 
$EndEntities
$Nodes
27 698 1 698
0 1 0 1
1
0.175 -0.075 0
0 2 0 1
2
-0.175 -0.075 0
0 3 0 1
3
0.175 0.075 0
0 4 0 1
4
-0.175 0.075 0
0 5 0 1
5
-0.175 0.02 0
0 6 0 1
6
-0.15 0.02 0
0 7 0 1
7
-0.15 0.05 0
0 8 0 1
8
0.15 0.05 0
0 9 0 1
9
0.15 -0.05 0
0 10 0 1
10
-0.15 -0.05 0
0 11 0 1
11
-0.15 -0.02 0
0 12 0 1
12
-0.175 -0.02 0
1 1 0 17
13
14
15
16
17
18
19
20
21
22
23
24
25
26
27
28
29
0.1555555555555556 -0.075 0
0.1361111111111111 -0.075 0
0.1166666666666667 -0.075 0
0.09722222222222228 -0.075 0
0.07777777777777786 -0.075 0
0.05833333333333345 -0.075 0
0.03888888888888903 -0.075 0
0.01944444444444463 -0.075 0
2.220446049250313e-16 -0.075 0
-0.01944444444444418 -0.075 0
-0.03888888888888864 -0.075 0
-0.05833333333333313 -0.075 0
-0.0777777777777775 -0.075 0
-0.09722222222222199 -0.075 0
-0.1166666666666665 -0.075 0
-0.136111111111111 -0.075 0
-0.1555555555555554 -0.075 0
1 2 0 7
30
31
32
33
34
35
36
0.175 0.05625000000000002 0
0.175 0.03750000000000007 0
0.175 0.0187500000000001 0
0.175 1.110223024625157e-16 0
0.175 -0.01874999999999989 0
0.175 -0.03749999999999994 0
0.175 -0.05624999999999998 0
1 3 0 17
37
38
39
40
41
42
43
44
45
46
47
48
49
50
51
52
53
-0.1555555555555556 0.075 0
-0.1361111111111111 0.075 0
-0.1166666666666667 0.075 0
-0.09722222222222228 0.075 0
-0.07777777777777786 0.075 0
-0.05833333333333345 0.075 0
-0.03888888888888903 0.075 0
-0.01944444444444463 0.075 0
-2.220446049250313e-16 0.075 0
0.01944444444444418 0.075 0
0.03888888888888864 0.075 0
0.05833333333333313 0.075 0
0.0777777777777775 0.075 0
0.09722222222222199 0.075 0
0.1166666666666665 0.075 0
0.136111111111111 0.075 0
0.1555555555555554 0.075 0
1 4 0 5
54
55
56
57
58
-0.175 0.024765219650642 0
-0.175 0.03076901922695294 0
-0.175 0.0383333338788647 0
-0.175 0.04786377373992266 0
-0.175 0.05987137315807277 0
1 5 0 4
59
60
61
62
-0.17 0.02 0
-0.165 0.02 0
-0.16 0.02 0
-0.155 0.02 0
1 6 0 4
63
64
65
66
-0.15 0.02446095138914268 0
-0.15 0.02958523790620041 0
-0.15 0.03547149736051868 0
-0.15 0.04223303425056444 0
1 7 0 29
67
68
69
70
71
72
73
74
75
76
77
78
79
80
81
82
83
84
85
86
87
88
89
90
91
92
93
94
95
-0.14 0.05 0
-0.13 0.05 0
-0.1200000000000001 0.05 0
-0.1100000000000001 0.05 0
-0.1000000000000001 0.05 0
-0.09000000000000011 0.05 0
-0.08000000000000011 0.05 0
-0.07000000000000015 0.05 0
-0.06000000000000015 0.05 0
-0.05000000000000018 0.05 0
-0.0400000000000002 0.05 0
-0.03000000000000023 0.05 0
-0.02000000000000024 0.05 0
-0.01000000000000023 0.05 0
-2.220446049250313e-16 0.05 0
0.009999999999999759 0.05 0
0.01999999999999977 0.05 0
0.0299999999999998 0.05 0
0.03999999999999979 0.05 0
0.04999999999999982 0.05 0
0.05999999999999983 0.05 0
0.06999999999999987 0.05 0
0.07999999999999988 0.05 0
0.08999999999999989 0.05 0
0.09999999999999992 0.05 0
0.1099999999999999 0.05 0
0.1199999999999999 0.05 0
0.13 0.05 0
0.1399999999999999 0.05 0
1 8 0 9
96
97
98
99
100
101
102
103
104
0.15 0.03999999999999999 0
0.15 0.02999999999999998 0
0.15 0.01999999999999995 0
0.15 0.009999999999999933 0
0.15 -6.938893903907228e-17 0
0.15 -0.01000000000000008 0
0.15 -0.02000000000000007 0
0.15 -0.03000000000000007 0
0.15 -0.04000000000000005 0
1 9 0 29
105
106
107
108
109
110
111
112
113
114
115
116
117
118
119
120
121
122
123
124
125
126
127
128
129
130
131
132
133
0.14 -0.05 0
0.13 -0.05 0
0.1200000000000001 -0.05 0
0.1100000000000001 -0.05 0
0.1000000000000001 -0.05 0
0.09000000000000011 -0.05 0
0.08000000000000011 -0.05 0
0.07000000000000015 -0.05 0
0.06000000000000015 -0.05 0
0.05000000000000018 -0.05 0
0.0400000000000002 -0.05 0
0.03000000000000023 -0.05 0
0.02000000000000024 -0.05 0
0.01000000000000023 -0.05 0
2.220446049250313e-16 -0.05 0
-0.009999999999999759 -0.05 0
-0.01999999999999977 -0.05 0
-0.0299999999999998 -0.05 0
-0.03999999999999979 -0.05 0
-0.04999999999999982 -0.05 0
-0.05999999999999983 -0.05 0
-0.06999999999999987 -0.05 0
-0.07999999999999988 -0.05 0
-0.08999999999999989 -0.05 0
-0.09999999999999992 -0.05 0
-0.1099999999999999 -0.05 0
-0.1199999999999999 -0.05 0
-0.13 -0.05 0
-0.1399999999999999 -0.05 0
1 10 0 4
134
135
136
137
-0.15 -0.04223303425056441 0
-0.15 -0.03547149736051865 0
-0.15 -0.0295852379062004 0
-0.15 -0.02446095138914265 0
1 11 0 4
138
139
140
141
-0.155 -0.02 0
-0.16 -0.02 0
-0.165 -0.02 0
-0.17 -0.02 0
1 12 0 5
142
143
144
145
146
-0.175 -0.05987137315807278 0
-0.175 -0.0478637737399227 0
-0.175 -0.03833333387886471 0
-0.175 -0.03076901922695294 0
-0.175 -0.02476521965064199 0
1 13 0 7
147
148
149
150
151
152
153
-0.175 -0.015 0
-0.175 -0.01000000000000001 0
-0.175 -0.005000000000000003 0
-0.175 -3.469446951953614e-18 0
-0.175 0.004999999999999998 0
-0.175 0.009999999999999998 0
-0.175 0.015 0
2 1 0 424
154
155
156
157
158
159
160
161
162
163
164
165
166
167
168
169
170
171
172
173
174
175
176
177
178
179
180
181
182
183
184
185
186
187
188
189
190
191
192
193
194
195
196
197
198
199
200
201
202
203
204
205
206
207
208
209
210
211
212
213
214
215
216
217
218
219
220
221
222
223
224
225
226
227
228
229
230
231
232
233
234
235
236
237
238
239
240
241
242
243
244
245
246
247
248
249
250
251
252
253
254
255
256
257
258
259
260
261
262
263
264
265
266
267
268
269
270
271
272
273
274
275
276
277
278
279
280
281
282
283
284
285
286
287
288
289
290
291
292
293
294
295
296
297
298
299
300
301
302
303
304
305
306
307
308
309
310
311
312
313
314
315
316
317
318
319
320
321
322
323
324
325
326
327
328
329
330
331
332
333
334
335
336
337
338
339
340
341
342
343
344
345
346
347
348
349
350
351
352
353
354
355
356
357
358
359
360
361
362
363
364
365
366
367
368
369
370
371
372
373
374
375
376
377
378
379
380
381
382
383
384
385
386
387
388
389
390
391
392
393
394
395
396
397
398
399
400
401
402
403
404
405
406
407
408
409
410
411
412
413
414
415
416
417
418
419
420
421
422
423
424
425
426
427
428
429
430
431
432
433
434
435
436
437
438
439
440
441
442
443
444
445
446
447
448
449
450
451
452
453
454
455
456
457
458
459
460
461
462
463
464
465
466
467
468
469
470
471
472
473
474
475
476
477
478
479
480
481
482
483
484
485
486
487
488
489
490
491
492
493
494
495
496
497
498
499
500
501
502
503
504
505
506
507
508
509
510
511
512
513
514
515
516
517
518
519
520
521
522
523
524
525
526
527
528
529
530
531
532
533
534
535
536
537
538
539
540
541
542
543
544
545
546
547
548
549
550
551
552
553
554
555
556
557
558
559
560
561
562
563
564
565
566
567
568
569
570
571
572
573
574
575
576
577
-0.1047142355521115 -0.04170758240743292 0
0.09554052238252328 -0.04165172786592259 0
-0.03484244294377068 0.04071806054692915 0
0.03504951440762308 -0.04135933713278515 0
-0.06531462833997567 0.0418081533267928 0
0.005032590150105258 0.04146862482283426 0
0.06487818308376092 -0.04208098643959596 0
-0.01514774475905033 -0.04107078100369793 0
-0.09434380702356238 0.04057164543384307 0
0.05496939551723904 0.04246921398770485 0
0.08564698608157167 0.04053378384421257 0
-0.04485722653631136 -0.04114780186629904 0
-0.07609401245844799 -0.04168505449819826 0
-0.14598127403907 0.02236522177823768 0
-0.1459415138443295 0.01746603060058186 0
-0.1416645579631557 0.02001001817762785 0
-0.1416131795729772 0.01478951433928734 0
-0.1462585389426989 -0.02132315636926705 0
0.1417835416713711 0.005133988297072654 0
-0.1369215945224801 0.01753797508069482 0
-0.1368390255305074 0.01181847430289651 0
-0.1317553498391033 0.01484002059202318 0
-0.1316654355140461 0.00862735185176699 0
-0.1261347266483673 0.01192566235071734 0
-0.1526455671892084 -0.01580441505494826 0
-0.1261476311406835 0.005366722459031726 0
-0.1201793746216041 0.008790528134579915 0
-0.1573723001966181 0.01516556801471623 0
-0.1199792625557723 0.001611438021296122 0
-0.1135530013117832 0.005211295519489409 0
-0.1706698729810778 -0.002500000000000004 0
0.1153527114587915 0.0411844615153466 0
-0.1417031404015606 0.008936676196154689 0
-0.1133993421976059 -0.002499406479691753 0
-0.1066561372364209 0.001264275652818271 0
-0.1196634642897327 -0.006056121851995867 0
-0.1451630230825737 -0.03241112471352346 0
-0.1321087197352548 0.002872577697223063 0
0.03478154104890891 0.04086893869889014 0
0.01610557977556713 -0.04086631022801247 0
0.115000044433859 -0.04133973915378597 0
-0.01578500744108573 0.04097282910056232 0
0.1407362524546519 -0.0153585748242329 0
-0.106442731259962 -0.006747396344259936 0
-0.09934245759601862 -0.002780521451339871 0
-0.119853972096867 0.01508056857897994 0
-0.1067496346666207 0.009768930346267485 0
-0.09915544853245298 -0.01094054737930072 0
-0.09172874999756847 -0.006400626648350083 0
-0.09255320870294054 0.003108411384365458 0
-0.08412880235794443 -0.001603379627563621 0
-0.08402937497557572 0.007054955968464815 0
-0.07594419744723549 0.002722396405148449 0
-0.145232293739626 0.03252836763335954 0
-0.07652922955338592 -0.007696388524957715 0
-0.06779941231931685 -0.002064319052581718 0
-0.06758028493886131 -0.01136862066456507 0
-0.05935635798637953 -0.006567386656168624 0
-0.0594941622980316 0.003026047542125111 0
-0.05104745733850165 -0.001628874869883762 0
-0.05122106336937971 0.008066491069022148 0
-0.04268398709429132 0.003359180654951476 0
-0.04256301032778016 -0.006407061714721356 0
-0.03411989249353587 -0.001409664908633191 0
-0.1253471897711682 -0.04098837940952611 0
-0.1317263347849745 0.02117273343084869 0
-0.03393833258193225 0.008303951634177518 0
-0.02548638782738283 0.003467815543104763 0
-0.025407223106842 -0.006159125137916193 0
-0.01694578922112431 -0.00120526713756148 0
-0.01699265582116334 0.008525789076655105 0
-0.008430502101936892 0.003851616463131926 0
-0.0085705375946603 -0.005619221254225373 0
0.0001793455596844316 -0.0009021981357166971 0
4.978134183486124e-05 0.00892835317640794 0
0.008756033694330721 0.004124085277225365 0
0.008812278598918588 -0.005691445907143397 0
0.01744450774260719 -0.0007219563236226482 0
0.01731975445469362 0.009227873913903962 0
0.02602662479635916 0.004357001514185378 0
0.02615455003227694 -0.005620132109883486 0
0.03473630268681308 -0.000522553415204838 0
0.03460494672461559 0.009457533942205909 0
0.04331786495378541 0.004581130709580713 0
0.04344805774707463 -0.005404392830840319 0
0.05203218134233593 -0.0002989734880059285 0
-0.1624924845321506 -0.01585403170533245 0
-0.1709165192336883 0.007508173553692817 0
0.1418503619973698 0.02501854347403397 0
0.05216169624156049 -0.01028735018274757 0
0.06074862465681911 -0.005180754417936048 0
0.06061857675393074 0.004809193871560322 0
0.06933682485732764 -7.259393322824045e-05 0
0.06946659547948453 -0.01006507733346608 0
0.07805646811955808 -0.004956380443090273 0
0.0779263324092983 0.005037666658255603 0
0.08664735168563412 0.0001533851965628072 0
0.08651684661892214 0.01014862989590101 0
0.09523869231534443 0.0052638803116755 0
0.09536894369943258 -0.004732019987906448 0
0.1039612417340734 0.0003787405530692004 0
0.1040916003019253 -0.009618069916238097 0
0.1038307543512268 0.01037549585166793 0
-0.07611189116806716 0.01195906265518373 0
-0.09116057902904334 -0.01595124781118122 0
0.07779505703781614 0.01503304321545914 0
-0.1067106651475637 -0.01521885674413309 0
0.07818613951617759 -0.01495076045118232 0
0.1126844852721692 -0.004506992196797698 0
-0.1478363157692909 -0.01635076323513127 0
-0.150246954513383 -0.01160704420637934 0
-0.1427963666416926 -0.01753693465215424 0
-0.1411902014663693 -0.0228923516577994 0
-0.1373079823538836 -0.01873338559745614 0
-0.05923789589525995 -0.0161382542864772 0
0.04318562687410251 0.01456677224115163 0
-0.1395315252641075 -0.01265515667459442 0
-0.1151878596740523 0.04162031147728497 0
0.1128724011916275 -0.01440154857402978 0
-0.08405734849049687 0.01646389515998031 0
-0.1354418501433926 -0.02449642407070262 0
0.04357548841258493 -0.01539298264277343 0
-0.1309631333439531 -0.01927243431404673 0
0.05229051914465959 -0.0202777138986941 0
0.1043551032335363 -0.01900182159299595 0
-0.07632678562382697 0.02144115520425642 0
0.034468995438264 0.0194444694733857 0
0.08638634440963067 0.02014483183086494 0
0.1346132328917515 -0.04156304605621659 0
-0.1287143167306491 -0.0258905300403457 0
-0.1336630015903237 -0.03060577699045866 0
-0.1241321450690218 -0.02054796597844094 0
-0.06723761330219724 -0.02104144586848388 0
-0.1214985291656154 -0.0274831144908608 0
-0.05907442185832127 -0.02586445624757203 0
0.07781233111924363 0.02477961757862892 0
0.06909905561398325 0.01987201975689369 0
0.06959558187803253 -0.02005835785445728 0
0.07831523729185472 -0.02494603555214052 0
0.1214176858772668 -0.009375920640746696 0
0.1207961504899241 -0.01997184703468102 0
0.1212793592287734 0.00060776568988289 0
0.04305193663268844 0.02461952903667312 0
-0.05087967126263894 -0.02076896275142776 0
-0.05969368187874328 0.01261477829387442 0
-0.05142297923666972 0.01780019455062051 0
-0.05992544159589508 0.0222611070624679 0
-0.05160898918611549 0.02757719184394401 0
-0.04264593363019767 0.02290012325282952 0
-0.1552434555342184 -0.01159130399347658 0
-0.1529071977486005 -0.007191342473348255 0
-0.1477914491730345 -0.007044191870299318 0
-0.1505169934728233 -0.00263119367324093 0
-0.1556708543690413 -0.002873178259842889 0
-0.1533457478432639 0.001714818544713903 0
-0.1584775020067034 0.001429585499678531 0
-0.1452254622896011 -0.002434126989897342 0
-0.1607616784399662 -0.003154885893664609 0
-0.1561696268565901 0.006006433166176216 0
-0.1612406924367485 0.005679771854351168 0
-0.08462631223120046 0.0259414666966995 0
-0.09312728826172526 0.01963635408578837 0
-0.1512308752661171 0.006201165474528097 0
0.06938401279615047 0.03135143223688719 0
0.04368258752167872 -0.02548916516358525 0
0.03498303720623001 -0.02051627232782382 0
-0.1356921741976001 0.04179611858601241 0
-0.1500988306374178 0.01573477841715623 0
-0.1703089835652752 -0.0122384990104047 0
-0.1673552485204736 0.01488137324912902 0
0.1350266127573924 0.04039606455065459 0
0.08686505255123503 -0.01976618536907221 0
0.05176970947820472 0.01968807183236918 0
0.05231432211765346 -0.0301934725811729 0
-0.07651871393002602 0.03103164053569686 0
-0.1424084067973554 0.02442154940050092 0
0.1300016049937155 -0.004281218162807648 0
-0.1267702185162471 -0.01387413272447994 0
-0.1171355826045057 -0.02163352812028045 0
-0.1133261285805993 -0.02735430820043756 0
0.08620705929874903 -0.02997417045276681 0
0.07757097698448009 -0.03443044515596393 0
-0.06691389227131897 -0.03071272996219902 0
-0.07591163233760531 -0.02515237910894897 0
-0.05914829364200232 -0.03465574663550582 0
-0.1423907524579797 -0.007031095197460948 0
-0.1397688070828676 -0.002496514622101509 0
-0.1366739366289332 -0.007216279369632176 0
0.1298713124825816 0.005717189117048601 0
0.1211475378184939 0.01060371461329743 0
0.1297408566763354 0.0157156662693455 0
0.1210166520796231 0.02060191160559342 0
0.1287873740334705 0.02532480195741952 0
0.120525588347313 0.03172683557068448 0
0.1122921407638099 0.02548815293743059 0
0.05131727134943664 0.02905806658346072 0
0.03442930063223049 0.02974909697965923 0
0.02576626568931286 0.02437430233682119 0
0.02561240775595831 0.03431375195142867 0
0.01720132111351431 0.0290568755198102 0
-0.1545591585785833 0.01039022409836854 0
-0.1421384979266323 0.002787440750162027 0
-0.0432473962612969 0.03309246236278062 0
-0.033989203884184 0.02912461322788971 0
-0.02548073482824278 0.03498794755715987 0
-0.02507424061804096 0.02430980434520101 0
-0.05109284588127272 0.03794267730319552 0
-0.08474367274850211 0.03545964188764928 0
-0.1249741766195097 0.04172991702980706 0
-0.1200280363632523 0.03363308480139119 0
-0.110833181149781 0.03343556029199028 0
-0.1156603286598578 0.02639595846051487 0
-0.1069347747094847 0.02560993109825756 0
-0.1292305303422957 0.03410304581497398 0
-0.1252450847355591 0.0261485280233284 0
-0.1121044740471455 0.01821566751964379 0
0.01622672966516547 0.03986463940353454 0
-0.1373826859819702 0.0336542519579288 0
0.08634971502396785 0.02991589111654238 0
0.09499352806979802 0.02521892381740156 0
0.09509316582486946 0.03514179004300579 0
-0.1018050952598689 0.03283465125133122 0
-0.114500274432199 -0.04194410515374664 0
0.03511162378657142 -0.03049082742473705 0
0.02657273905222333 -0.02560585065424238 0
-0.01683193633904199 0.03054988251261338 0
-0.007755967689779462 0.03385837944800413 0
-0.008612086699691464 0.02416576565448136 0
0.0002291771164742457 0.02822630408922844 0
-0.1360001383027808 -0.0420226439330202 0
-0.1026688613101966 0.01815702081209837 0
-0.09766052895491312 0.01105438021812763 0
-0.1336246173434334 -0.01305922592362247 0
-0.130511122044055 -0.007011982587849548 0
0.02594040284249415 -0.0354366703516478 0
0.01761561777773665 -0.03007478071508212 0
0.008099245359849391 -0.03349693803401302 0
0.009738422346089518 -0.02410757860259062 0
0.0003985625086159982 -0.02720689662164084 0
-0.0004009192507007132 -0.03509097111864739 0
-0.009267190507578715 -0.03168231437796529 0
-0.006165237702666276 -0.02040604210605073 0
-0.01615482784088522 -0.02133612876792702 0
0.04399368747277217 -0.03528331862649076 0
0.04306607046111656 0.03399270322033841 0
-0.09501972935508504 -0.04157133731390201 0
-0.09959788628006416 -0.03342562196271666 0
-0.09049043876656987 -0.03319934587918423 0
-0.0952154274700375 -0.02522011324977659 0
-0.1045003521808952 -0.02497480346991917 0
-0.1445939912166289 -0.03853053187449144 0
-0.08579538006710039 -0.02506522841957017 0
-0.08176730972268031 -0.01614628156278708 0
-0.1268935967323785 -0.002010833129784299 0
-0.1437746497349321 0.03849183212717759 0
-0.1589817596839743 0.01024479630999968 0
-0.1640159079190214 0.01029497205643888 0
-0.1633185683371131 0.0009886045687583684 0
-0.08535295833495468 -0.04151407063722215 0
-0.03395816870317776 0.01839512034367099 0
0.05379653281144271 -0.04075575655238134 0
-0.1579435030325715 -0.007364819928309186 0
-0.1627282152791512 -0.007663317586320538 0
0.01728505403708303 0.01919278241728125 0
-0.1706077986197671 -0.006945591679119861 0
-0.1708740398676223 0.002579289368555329 0
0.02648527207560259 -0.0156109692441322 0
-0.1623066113805759 0.01537801751926873 0
0.1124234748287768 0.01548833948672682 0
0.1250549631051685 0.04131490543539277 0
-0.02502382938197761 -0.0413941732995381 0
-0.02007148982433043 -0.03256643898169403 0
-0.02669807661195612 -0.02513623726402709 0
-0.03497938153732185 -0.04141541550812979 0
-0.03969580505928852 -0.03314129932327976 0
0.1249355462209351 -0.04137696150977083 0
0.1302687610049506 -0.03292155139121117 0
0.1408375382478618 -0.03374050094363318 0
0.1353899212832184 -0.02441849034338585 0
0.1201936576225522 -0.03105489983065725 0
0.1100000979237885 -0.032679548460637 0
0.1050901581722279 -0.04139175974488826 0
0.1006420148122159 -0.0335708534353205 0
-0.07582437748184362 0.040919217504978 0
0.1043206975932909 0.04057075462704229 0
0.1420600453558315 0.01520560651596228 0
0.1422034053719263 -0.004774597809644451 0
0.06499999999999981 0.04133974596215566 0
0.07481612741750185 0.04118656375030785 0
0.1301247184174806 -0.0146892857250728 0
0.1125544755389189 0.005491177332974429 0
0.06921073307064274 0.009912885393403294 0
0.08677057212165035 -0.009829896321033973 0
0.05190208519230994 0.009690696326355859 0
0.06960999876382246 -0.02927055546584836 0
0.0951110063294229 0.01525373235994653 0
0.0348971180267637 -0.01051121709510968 0
0.09549211189970527 -0.01467892038425365 0
-0.00860347748940574 0.01382023438380959 0
0.06087809215477311 -0.01517193821565942 0
0.103703278352819 0.02036549918945121 0
0.0259119401900547 0.01434232726629723 0
0.1035687657738794 0.03036835068353383 0
0.06049202866126763 0.01479335954108014 0
0.06084634184414218 -0.02481139156147222 0
0.01762725812379315 -0.01065670386986069 0
-0.01696929320433904 -0.01052726211165529 0
0.06034367964984042 0.02476298331523618 0
-0.0007793445475405992 -0.01141764770220472 0
0.008677644164776246 0.01402875540561332 0
-0.138541837365104 -0.03485968428382566 0
-0.03395500108259907 -0.01099528055392094 0
-0.1369175840146785 0.006051436375135182 0
-0.1480888062212838 0.002033154009259877 0
-0.04270908361884139 0.0131292759394827 0
-0.06043208498056757 0.03331074951363908 0
-0.05090879811834947 -0.01126308953535581 0
-0.1456904857215938 -0.02667844212306897 0
-0.1401581755696122 -0.02874992473030743 0
-0.05002455186090429 -0.031773437218528 0
-0.166061034727355 -0.003940211590095969 0
-0.1055006540614612 0.04162879871931108 0
-0.1132923339848695 -0.01031803102523043 0
-0.06790609641304918 0.007461584548426098 0
-0.01698711171428218 0.01887427740879723 0
-0.1662109825805162 0.005329208839103912 0
-0.09295066055578768 0.02997883949704012 0
-0.1450988939699147 -0.01203753097266992 0
-0.04259762130312356 -0.01575632824506346 0
-0.06806667608132602 0.01702196570204126 0
-0.1200369079640077 -0.01392204620600448 0
-0.0001508068087026915 0.01867516753534302 0
-0.1458608372561507 0.01229276385613603 0
0.008746608475328852 0.02382887387791441 0
0.08530912144341635 -0.04046945922200007 0
0.09591526105789452 -0.02548505033797531 0
-0.15756402986455 -0.0158223018143743 0
-0.06843615980837449 0.02639410644803899 0
-0.0301932324828827 -0.03356225919763989 0
-0.1673557861929964 -0.01604556086283986 0
-0.1712363642307528 0.01228234139888886 0
0.1425733994098707 0.03466925921170953 0
-0.1336401387415465 0.02796466193767457 0
0.1125138448734264 -0.0239895482041668 0
-0.08147946170812054 -0.03310890668807631 0
-0.1601156671401397 -0.01168792950534905 0
-0.1462711527441893 0.006829106022832815 0
-0.03432419577334361 -0.01995075556756209 0
-0.02515070425360785 -0.01551869694995692 0
-0.1266175978247793 -0.0325184765642766 0
-0.06570146585860115 -0.04046089372979065 0
0.008554005687297972 -0.01500525426945435 0
-0.1181608586777104 -0.03406227796752858 0
-0.1649825636222784 -0.01198899717151783 0
0.01804666203248013 -0.02032776821297396 0
0.008181417662456364 0.03306604446930694 0
-0.02535645036841286 0.01335395869164902 0
-0.04383653701726813 0.04235064004258106 0
0.05847178873601692 0.03424906510612306 0
-0.1258453052998563 0.01851242960949603 0
-0.1461400053800715 0.02702309464767153 0
0.005384064432333968 -0.04235089980885674 0
-0.1374168902619465 0.02266515197624529 0
0.06156707039637895 -0.03399918060958877 0
-0.09934849447199853 -0.01846111373086216 0
-0.0425106771460624 -0.02474620679887329 0
0.07500000000000009 -0.04290787456730374 0
-0.00487473454893819 0.04245511953072373 0
0.02532413569400645 0.04300946601077067 0
0.1290556936046991 0.03373681256708176 0
-0.05424773415715876 -0.04176083615261296 0
0.07880183448768707 0.03355345770531578 0
0.04522392688186209 0.04271889522255574 0
-0.108419236879671 -0.03399659310569782 0
-0.1338344778672598 -0.002432822426589443 0
0.1112302400954967 0.03382663531322115 0
-0.09028554987713031 0.01146359936334532 0
-0.02522163704261993 0.04333576744093027 0
-0.1144880913488041 0.01141339801979211 0
0.1433927423971464 -0.02470351322225041 0
-0.09949733601941263 0.02524335934890313 0
-0.07380521397094603 -0.01628102314594854 0
-0.1440711920700936 -0.04481010465503415 0
0.09499999999999992 0.04347404483418873 0
-0.06925054855529733 0.03456704635567362 0
0.02510909501383216 -0.04357233223498976 0
0.001920652934715623 -0.01927962400749178 0
-0.1440211875590465 0.04472234727330256 0
-0.0850000000000001 0.0436990061687788 0
-0.1503146908998841 0.01098377597657836 0
-0.08474210685312716 -0.009386239992634503 0
-0.005960912861292859 -0.04210580023778901 0
0.1271698436896071 -0.02499232095981807 0
-0.167446864410452 0.0001383538185352602 0
0.0447795647644734 -0.04365430666024671 0
-0.1251526610158426 -0.008534312251693385 0
-0.140599900122067 0.0290231307473011 0
-0.1713397459621556 -0.01633974596215561 0
-0.1716101578107911 0.0164061723674756 0
0.1426794919243111 0.0426794919243112 0
0.1426794919243112 -0.0426794919243114 0
-0.1668942450239573 -0.008444644358860401 0
-0.05745290269793818 0.04275592999510611 0
-0.1107737098197515 -0.02111678898021458 0
-0.1005626985020349 0.004381627869349386 0
-0.1538672909168467 0.01445461799044845 0
-0.1311482552419061 -0.03660654323512536 0
-0.1679470044968905 0.0100592138194507 0
-1.849331475146931e-05 0.03574097087816758 0
-0.07387043065620161 -0.03406456483358435 0
-0.009731157573521264 -0.01372471520566174 0
0.1050001941716582 -0.02708140461937462 0
-0.1200428276093638 0.02137827170011638 0
0.1354008769906244 0.02055329440255997 0
0.1354816505257586 0.01065053239848851 0
0.1358839297801509 0.02992145532125745 0
0.1356535415583847 0.000610271960773498 0
0.09284529143816184 -0.03432199651204343 0
-0.0346891425876604 -0.0276125774452352 0
0.1353809267201467 -0.009211136731453492 0
-0.1370506849800699 0.001266097452607808 0
-0.1139790676993666 -0.01650455829464343 0
0.07039759982427976 -0.0369140642607684 0
0.0501054829743167 0.03650735098305138 0
2 2 0 121
578
579
580
581
582
583
584
585
586
587
588
589
590
591
592
593
594
595
596
597
598
599
600
601
602
603
604
605
606
607
608
609
610
611
612
613
614
615
616
617
618
619
620
621
622
623
624
625
626
627
628
629
630
631
632
633
634
635
636
637
638
639
640
641
642
643
644
645
646
647
648
649
650
651
652
653
654
655
656
657
658
659
660
661
662
663
664
665
666
667
668
669
670
671
672
673
674
675
676
677
678
679
680
681
682
683
684
685
686
687
688
689
690
691
692
693
694
695
696
697
698
-0.1623655587336212 0.02398292474846247 0
-0.1625 -0.0243301270189222 0
-0.1559787307161312 -0.03806692096331539 0
-0.1550489549097456 0.0387087125088464 0
-0.1693072982386123 0.03442332678154797 0
-0.169613495225346 -0.03393012133873598 0
-0.1648810527209633 0.05376940237335245 0
-0.1662420398465998 -0.0539594289402508 0
-0.1544254082689983 -0.02734196354674437 0
-0.1540472972878221 0.02711300449254615 0
-0.1457170660365352 -0.05682693117661272 0
-0.1457170660365352 0.05682693117661271 0
-0.1705038115478723 -0.02788571482196639 0
-0.1695969359186891 0.02794256589532246 0
-0.1642889019990184 0.03185422039499014 0
-0.1644794760166954 0.0380317340188782 0
-0.1563274367991429 -0.05538067089378047 0
-0.154503485686067 0.05839832652766209 0
-0.166069762056322 -0.04480144127519811 0
0.1462798840953702 0.06128911706927072 0
0.1459971951174185 -0.06079948539671855 0
0.1613294596792814 -0.04581444305707784 0
0.1616121486572332 0.04630407472963004 0
-0.1254629629629629 -0.06122008467928142 0
0.1254629629629629 0.06122008467928142 0
0.1254629629629629 -0.06122008467928142 0
-0.1254629629629629 0.06122008467928143 0
-0.105648148148148 -0.06122008467928142 0
0.105648148148148 0.06122008467928143 0
0.1056481481481482 -0.06122008467928142 0
-0.1056481481481482 0.06122008467928143 0
-0.1645487521540627 -0.0300393647042159 0
-0.1635597975200211 -0.03721916005825196 0
-0.158648014867895 -0.03215435584103633 0
0.1612200846792814 -0.02604166666666668 0
0.1610710669749753 0.02604166666666667 0
-0.08583333333333316 -0.06122008467928143 0
0.08583333333333316 0.06122008467928143 0
0.08583333333333343 -0.06122008467928142 0
-0.08583333333333343 0.06122008467928142 0
-0.06601851851851864 0.06122008467928146 0
0.06601851851851864 -0.06122008467928144 0
0.06601851851851832 0.06122008467928144 0
-0.06601851851851832 -0.06122008467928144 0
0.1620522144870462 -0.005977902964819653 0
-0.04620370370370387 0.06122008467928146 0
0.04620370370370386 -0.06122008467928144 0
-0.0462037037037035 -0.06122008467928144 0
0.0462037037037035 0.06122008467928146 0
-0.1556550948708491 0.04546708817035866 0
-0.1557865467608829 -0.04603230483265679 0
0.02638888888888909 -0.06107106697497529 0
-0.02638888888888909 0.0610710669749753 0
-0.02638888888888866 -0.06122008467928144 0
0.02638888888888866 0.06122008467928144 0
-0.1543945918385027 0.03206134711894357 0
0.1605745980513598 0.06064053196648346 0
0.1591976717762418 -0.0569252093396878 0
-0.00609364370556015 -0.0620522144870462 0
0.006093643705560149 0.06205221448704619 0
0.1636530328844328 0.007882582211082057 0
0.007882582211082357 -0.06365303288443286 0
-0.007882582211082364 0.06365303288443287 0
-0.1668934735129402 0.04551672271608544 0
-0.1595751871633847 0.02864916298351005 0
-0.1574590326346448 0.02386006725022987 0
-0.1575196471091026 -0.02379793151285785 0
-0.1673135439568105 -0.02431113763056067 0
0.1595366431264417 0.03596914827925934 0
0.1596544598332655 -0.01615391392629727 0
0.1595099088717126 -0.03587122194474891 0
0.1155555555555556 -0.05948803387171256 0
-0.1155555555555556 0.05948803387171257 0
-0.05611111111111092 -0.05948803387171257 0
0.0163853954077785 0.05965445983326553 0
0.09574074074074058 0.05948803387171257 0
-0.09574074074074058 -0.05948803387171256 0
-0.03629629629629649 0.05945823033085135 0
-0.03629629629629608 -0.05948803387171257 0
-0.07592592592592604 0.05948803387171259 0
0.07592592592592604 -0.05948803387171257 0
-0.0163853954077785 -0.05965445983326552 0
0.05611111111111092 0.05948803387171259 0
0.1355707916338888 0.05950184034971043 0
0.05611111111111126 -0.05948803387171257 0
0.03629629629629649 -0.05945823033085135 0
0.03629629629629608 0.05948803387171259 0
0.1155555555555554 0.05948803387171257 0
-0.1155555555555554 -0.05948803387171256 0
-0.05611111111111126 0.05948803387171259 0
-0.1369491648341926 -0.05963186915050923 0
-0.07592592592592574 -0.05948803387171257 0
0.07592592592592574 0.05948803387171257 0
-0.09574074074074082 0.05948803387171257 0
0.09574074074074082 -0.05948803387171256 0
-0.1369491648341927 0.05963186915050922 0
0.1355142538382985 -0.05940391401519998 0
-0.1635316067212971 -0.06451886657483576 0
-0.1637349171671401 0.06485760302569274 0
-0.1594778353728582 0.03506824410507836 0
-0.1672725965502797 0.02374709281170094 0
-0.1538104307706049 -0.03252399512356302 0
-0.1596274308895287 -0.02767891873602653 0
-0.1605949306522383 -0.04235268866331608 0
0.1599448199718816 0.01653484977554974 0
-0.01674318310888331 0.05994481997188164 0
0.01674318310888331 -0.05994481997188163 0
-0.1599972191898549 0.04196082493913107 0
-0.1713287000389281 -0.02361161923825957 0
-0.1611113798386473 0.04781128859159471 0
-0.156950898406569 0.05135660084218562 0
-0.1713739064937938 0.02329097567153308 0
-0.1535301805985953 0.02338514037114984 0
-0.1535301805985953 -0.02338514037114969 0
-0.1695485913975912 0.04034720721033248 0
-0.1615613887975118 -0.04870713099869302 0
-0.1698486109603378 -0.04042956605819469 0
-0.1488533008550552 0.06555920364793023 0
-0.1490319901763057 -0.06439305629928968 0
-0.1646198360729986 0.02723519336679721 0
0.1655147959616521 -0.06678351316081226 0
$EndNodes
$Elements
27 1496 1 1496
0 1 15 1
1 1 
0 2 15 1
2 2 
0 3 15 1
3 3 
0 4 15 1
4 4 
0 5 15 1
5 5 
0 6 15 1
6 6 
0 7 15 1
7 7 
0 8 15 1
8 8 
0 9 15 1
9 9 
0 10 15 1
10 10 
0 11 15 1
11 11 
0 12 15 1
12 12 
1 1 1 18
13 1 13 
14 13 14 
15 14 15 
16 15 16 
17 16 17 
18 17 18 
19 18 19 
20 19 20 
21 20 21 
22 21 22 
23 22 23 
24 23 24 
25 24 25 
26 25 26 
27 26 27 
28 27 28 
29 28 29 
30 29 2 
1 2 1 8
31 3 30 
32 30 31 
33 31 32 
34 32 33 
35 33 34 
36 34 35 
37 35 36 
38 36 1 
1 3 1 18
39 4 37 
40 37 38 
41 38 39 
42 39 40 
43 40 41 
44 41 42 
45 42 43 
46 43 44 
47 44 45 
48 45 46 
49 46 47 
50 47 48 
51 48 49 
52 49 50 
53 50 51 
54 51 52 
55 52 53 
56 53 3 
1 4 1 6
57 5 54 
58 54 55 
59 55 56 
60 56 57 
61 57 58 
62 58 4 
1 5 1 5
63 5 59 
64 59 60 
65 60 61 
66 61 62 
67 62 6 
1 6 1 5
68 6 63 
69 63 64 
70 64 65 
71 65 66 
72 66 7 
1 7 1 30
73 7 67 
74 67 68 
75 68 69 
76 69 70 
77 70 71 
78 71 72 
79 72 73 
80 73 74 
81 74 75 
82 75 76 
83 76 77 
84 77 78 
85 78 79 
86 79 80 
87 80 81 
88 81 82 
89 82 83 
90 83 84 
91 84 85 
92 85 86 
93 86 87 
94 87 88 
95 88 89 
96 89 90 
97 90 91 
98 91 92 
99 92 93 
100 93 94 
101 94 95 
102 95 8 
1 8 1 10
103 8 96 
104 96 97 
105 97 98 
106 98 99 
107 99 100 
108 100 101 
109 101 102 
110 102 103 
111 103 104 
112 104 9 
1 9 1 30
113 9 105 
114 105 106 
115 106 107 
116 107 108 
117 108 109 
118 109 110 
119 110 111 
120 111 112 
121 112 113 
122 113 114 
123 114 115 
124 115 116 
125 116 117 
126 117 118 
127 118 119 
128 119 120 
129 120 121 
130 121 122 
131 122 123 
132 123 124 
133 124 125 
134 125 126 
135 126 127 
136 127 128 
137 128 129 
138 129 130 
139 130 131 
140 131 132 
141 132 133 
142 133 10 
1 10 1 5
143 10 134 
144 134 135 
145 135 136 
146 136 137 
147 137 11 
1 11 1 5
148 11 138 
149 138 139 
150 139 140 
151 140 141 
152 141 12 
1 12 1 6
153 2 142 
154 142 143 
155 143 144 
156 144 145 
157 145 146 
158 146 12 
1 13 1 8
159 12 147 
160 147 148 
161 148 149 
162 149 150 
163 150 151 
164 151 152 
165 152 153 
166 153 5 
2 1 2 944
167 6 321 62 
168 371 408 320 
169 156 357 356 
170 156 358 357 
171 323 421 410 
172 207 408 371 
173 11 263 171 
174 441 442 317 
175 82 370 159 
176 394 545 161 
177 329 550 516 
178 410 421 409 
179 161 425 394 
180 433 497 294 
181 315 385 384 
182 321 559 62 
183 404 464 383 
184 263 265 171 
185 516 550 496 
186 294 546 433 
187 409 421 181 
188 506 527 376 
189 410 561 323 
190 333 527 506 
191 408 541 320 
192 83 370 82 
193 113 414 160 
194 193 389 388 
195 265 481 270 
196 219 496 368 
197 339 341 270 
198 263 481 265 
199 383 536 404 
200 362 367 320 
201 195 379 358 
202 270 481 339 
203 185 423 347 
204 186 466 355 
205 354 409 181 
206 267 386 276 
207 350 352 192 
208 413 468 302 
209 181 559 354 
210 315 530 385 
211 442 525 317 
212 258 405 402 
213 396 502 460 
214 368 513 219 
215 165 524 473 
216 184 474 418 
217 381 478 379 
218 388 539 193 
219 367 371 320 
220 371 550 207 
221 358 531 195 
222 165 473 428 
223 270 386 267 
224 361 480 162 
225 104 431 103 
226 379 478 359 
227 258 406 405 
228 76 511 360 
229 393 545 394 
230 504 524 125 
231 407 528 191 
232 387 528 407 
233 432 443 196 
234 438 456 374 
235 162 480 375 
236 68 362 320 
237 164 374 372 
238 360 556 76 
239 119 545 515 
240 478 510 359 
241 405 406 337 
242 474 555 418 
243 192 398 350 
244 114 414 113 
245 359 510 413 
246 386 387 331 
247 515 545 393 
248 460 564 396 
249 132 383 218 
250 199 566 369 
251 361 437 328 
252 104 554 431 
253 220 468 413 
254 338 524 504 
255 357 413 302 
256 394 425 396 
257 414 517 160 
258 347 529 185 
259 375 475 162 
260 355 500 186 
261 459 508 505 
262 484 549 189 
263 370 509 159 
264 276 386 331 
265 376 527 154 
266 341 386 270 
267 334 488 335 
268 317 512 441 
269 130 376 154 
270 365 368 363 
271 363 368 367 
272 284 472 274 
273 426 502 396 
274 363 367 362 
275 403 527 333 
276 68 320 67 
277 369 384 200 
278 381 485 452 
279 473 524 338 
280 476 484 189 
281 193 390 389 
282 368 496 367 
283 504 563 336 
284 358 359 357 
285 406 535 337 
286 271 363 362 
287 266 471 171 
288 208 535 406 
289 174 466 186 
290 377 397 157 
291 356 511 156 
292 374 537 438 
293 352 522 192 
294 406 544 208 
295 271 362 69 
296 133 383 132 
297 452 478 381 
298 218 376 131 
299 157 388 377 
300 266 472 471 
301 132 218 131 
302 334 571 488 
303 322 555 507 
304 327 397 318 
305 361 542 437 
306 369 566 365 
307 187 476 189 
308 432 546 443 
309 333 557 403 
310 162 475 71 
311 505 508 391 
312 399 412 128 
313 320 541 67 
314 164 537 374 
315 162 542 361 
316 318 397 377 
317 401 412 399 
318 364 365 363 
319 69 362 68 
320 387 549 331 
321 338 504 336 
322 331 549 484 
323 485 487 463 
324 385 530 203 
325 195 380 379 
326 274 472 266 
327 423 523 347 
328 434 497 433 
329 425 426 396 
330 395 564 462 
331 366 369 365 
332 154 400 399 
333 189 407 182 
334 322 507 493 
335 382 485 381 
336 400 403 402 
337 70 271 69 
338 327 414 397 
339 296 398 349 
340 350 398 296 
341 372 525 164 
342 130 154 129 
343 154 399 129 
344 396 564 395 
345 543 559 321 
346 412 498 166 
347 241 479 419 
348 271 475 364 
349 131 376 130 
350 138 178 11 
351 390 391 389 
352 359 413 357 
353 496 550 371 
354 176 466 174 
355 364 475 375 
356 271 364 363 
357 384 534 315 
358 358 379 359 
359 400 402 401 
360 312 409 354 
361 203 558 385 
362 443 546 294 
363 273 315 314 
364 309 411 313 
365 187 189 182 
366 191 466 176 
367 364 366 365 
368 380 381 379 
369 310 467 355 
370 311 411 309 
371 354 559 543 
372 304 307 306 
373 304 415 307 
374 179 191 176 
375 400 401 399 
376 313 409 312 
377 309 313 312 
378 307 309 308 
379 309 312 308 
380 128 412 127 
381 129 399 128 
382 166 563 504 
383 415 416 311 
384 307 311 309 
385 138 490 178 
386 336 337 286 
387 313 410 409 
388 402 518 258 
389 384 385 200 
390 303 415 304 
391 390 392 391 
392 312 354 316 
393 307 415 311 
394 196 533 432 
395 465 502 501 
396 382 487 485 
397 311 474 411 
398 464 472 284 
399 174 186 170 
400 158 437 74 
401 74 437 73 
402 165 428 427 
403 307 308 306 
404 168 486 321 
405 127 412 166 
406 462 540 395 
407 200 532 369 
408 72 162 71 
409 402 405 401 
410 380 382 381 
411 351 455 417 
412 417 455 232 
413 133 536 383 
414 394 396 395 
415 178 490 303 
416 184 418 149 
417 150 419 184 
418 424 425 161 
419 394 395 392 
420 390 393 392 
421 420 450 319 
422 234 450 420 
423 150 184 149 
424 393 394 392 
425 280 455 351 
426 122 424 121 
427 121 424 161 
428 165 427 123 
429 148 418 322 
430 351 417 353 
431 241 419 151 
432 149 418 148 
433 122 427 424 
434 151 419 150 
435 181 421 61 
436 378 420 319 
437 140 240 139 
438 62 181 61 
439 60 421 323 
440 156 531 358 
441 61 421 60 
442 259 445 290 
443 343 444 422 
444 280 351 350 
445 319 450 275 
446 148 322 147 
447 351 353 352 
448 422 444 256 
449 123 427 122 
450 152 241 151 
451 377 378 319 
452 259 290 289 
453 388 389 378 
454 155 436 435 
455 435 436 434 
456 318 319 275 
457 345 422 348 
458 429 433 430 
459 60 323 59 
460 194 434 433 
461 88 441 87 
462 87 441 163 
463 164 442 89 
464 155 435 109 
465 345 348 347 
466 88 442 441 
467 295 444 343 
468 194 433 429 
469 429 430 282 
470 92 438 91 
471 185 438 92 
472 109 435 108 
473 430 431 282 
474 343 422 345 
475 430 432 431 
476 89 442 88 
477 295 343 342 
478 324 423 94 
479 98 439 242 
480 196 440 101 
481 107 429 106 
482 101 440 100 
483 106 429 282 
484 99 439 98 
485 94 423 93 
486 100 440 172 
487 194 429 107 
488 124 165 123 
489 80 195 79 
490 93 185 92 
491 118 193 117 
492 121 161 120 
493 98 242 97 
494 75 158 74 
495 82 159 81 
496 87 163 86 
497 90 164 89 
498 108 194 107 
499 113 160 112 
500 127 166 126 
501 78 156 77 
502 116 157 115 
503 85 192 84 
504 102 196 101 
505 95 324 94 
506 100 172 99 
507 110 155 109 
508 172 439 99 
509 106 282 105 
510 93 423 185 
511 194 435 434 
512 108 435 194 
513 343 345 344 
514 343 344 342 
515 345 347 346 
516 262 295 293 
517 351 352 350 
518 345 346 344 
519 295 342 330 
520 272 278 255 
521 293 294 272 
522 290 317 289 
523 295 330 293 
524 422 454 348 
525 293 443 294 
526 262 293 272 
527 330 443 293 
528 252 256 254 
529 372 373 281 
530 262 272 255 
531 254 262 255 
532 262 444 295 
533 372 374 373 
534 254 444 262 
535 254 255 253 
536 252 253 250 
537 256 444 254 
538 249 259 251 
539 261 291 247 
540 259 289 281 
541 251 252 250 
542 252 254 253 
543 261 325 292 
544 289 372 281 
545 261 292 291 
546 259 281 251 
547 246 249 248 
548 249 251 250 
549 325 334 292 
550 334 335 292 
551 292 448 291 
552 318 377 319 
553 278 451 255 
554 454 456 348 
555 249 250 248 
556 250 446 248 
557 253 451 446 
558 252 449 256 
559 446 451 325 
560 249 445 259 
561 373 449 281 
562 253 446 250 
563 248 261 247 
564 248 446 261 
565 261 446 325 
566 246 247 244 
567 251 449 252 
568 246 445 249 
569 291 453 247 
570 246 248 247 
571 281 449 251 
572 335 448 292 
573 245 445 246 
574 377 388 378 
575 237 238 235 
576 245 246 244 
577 243 275 238 
578 296 326 269 
579 255 451 253 
580 239 245 244 
581 290 461 317 
582 353 370 352 
583 277 318 275 
584 256 454 422 
585 449 454 256 
586 239 244 243 
587 445 457 290 
588 373 454 449 
589 277 327 318 
590 243 277 275 
591 296 349 326 
592 239 243 238 
593 236 280 269 
594 237 447 239 
595 237 239 238 
596 280 350 296 
597 280 296 269 
598 269 447 237 
599 373 456 454 
600 448 458 291 
601 247 453 244 
602 236 269 237 
603 62 559 181 
604 238 450 235 
605 374 456 373 
606 326 447 269 
607 235 450 234 
608 244 453 243 
609 275 450 238 
610 239 447 245 
611 243 453 277 
612 236 237 235 
613 291 458 453 
614 326 457 447 
615 233 236 235 
616 447 457 245 
617 236 455 280 
618 453 458 277 
619 233 235 234 
620 313 479 410 
621 245 457 445 
622 277 458 327 
623 233 234 231 
624 232 455 233 
625 229 232 231 
626 420 459 234 
627 232 463 417 
628 457 461 290 
629 233 455 236 
630 232 233 231 
631 225 226 223 
632 326 461 457 
633 349 461 326 
634 234 459 231 
635 229 230 227 
636 231 459 230 
637 197 476 187 
638 229 463 232 
639 228 463 229 
640 229 231 230 
641 225 227 226 
642 225 228 227 
643 212 477 298 
644 228 229 227 
645 227 462 226 
646 225 452 228 
647 226 460 223 
648 223 460 222 
649 224 452 225 
650 224 225 223 
651 230 462 227 
652 221 224 223 
653 170 486 168 
654 221 222 217 
655 221 223 222 
656 212 298 214 
657 366 384 369 
658 301 360 356 
659 356 357 302 
660 70 475 271 
661 222 465 217 
662 217 465 216 
663 136 190 135 
664 298 300 299 
665 67 541 7 
666 298 299 214 
667 220 221 217 
668 495 569 324 
669 403 557 260 
670 10 536 133 
671 215 220 217 
672 215 216 213 
673 301 302 299 
674 323 561 494 
675 276 331 285 
676 209 212 211 
677 383 560 218 
678 301 356 302 
679 300 469 301 
680 215 217 216 
681 301 469 360 
682 300 301 299 
683 214 215 213 
684 71 475 70 
685 298 483 300 
686 288 338 336 
687 299 468 214 
688 473 519 428 
689 268 297 288 
690 214 468 215 
691 312 316 308 
692 209 211 210 
693 369 532 199 
694 411 479 313 
695 503 506 218 
696 215 468 220 
697 438 529 456 
698 211 268 210 
699 268 286 210 
700 212 214 213 
701 416 474 311 
702 288 336 286 
703 268 288 286 
704 178 303 264 
705 302 468 299 
706 300 491 469 
707 65 207 64 
708 212 213 211 
709 224 478 452 
710 310 355 340 
711 324 569 523 
712 288 473 338 
713 205 273 257 
714 211 470 268 
715 66 408 65 
716 425 492 426 
717 201 260 197 
718 213 470 211 
719 83 522 370 
720 273 314 279 
721 297 473 288 
722 260 518 403 
723 314 361 328 
724 303 304 264 
725 209 210 208 
726 216 470 213 
727 479 547 419 
728 205 257 206 
729 314 328 279 
730 206 208 204 
731 216 482 470 
732 206 209 208 
733 273 279 257 
734 268 470 297 
735 228 485 463 
736 463 487 417 
737 418 555 322 
738 308 467 306 
739 400 527 403 
740 205 206 204 
741 315 480 314 
742 470 482 297 
743 209 477 212 
744 111 488 110 
745 428 492 427 
746 206 477 209 
747 260 476 197 
748 325 489 334 
749 278 489 451 
750 424 492 425 
751 304 306 305 
752 367 496 371 
753 139 490 138 
754 465 482 216 
755 198 203 202 
756 257 477 206 
757 141 493 140 
758 153 494 152 
759 97 495 96 
760 186 486 170 
761 306 467 310 
762 265 266 171 
763 314 480 361 
764 483 491 300 
765 179 407 191 
766 158 556 469 
767 202 258 201 
768 477 483 298 
769 198 202 201 
770 203 205 204 
771 265 270 267 
772 316 467 308 
773 218 506 376 
774 186 500 486 
775 178 263 11 
776 272 497 278 
777 466 574 355 
778 111 520 488 
779 501 502 426 
780 415 499 416 
781 306 310 305 
782 203 204 202 
783 279 483 257 
784 368 566 513 
785 364 375 366 
786 257 483 477 
787 126 504 125 
788 452 485 228 
789 341 387 386 
790 189 549 407 
791 391 508 389 
792 222 502 465 
793 413 510 220 
794 273 530 315 
795 459 505 230 
796 134 536 10 
797 198 201 197 
798 304 305 264 
799 310 339 305 
800 417 487 353 
801 136 471 190 
802 469 556 360 
803 420 508 459 
804 389 508 378 
805 135 404 134 
806 110 488 155 
807 77 511 76 
808 137 471 136 
809 443 573 196 
810 353 509 370 
811 220 510 221 
812 168 321 6 
813 240 490 139 
814 331 484 285 
815 451 489 325 
816 188 198 197 
817 183 200 188 
818 448 576 517 
819 284 560 464 
820 264 481 263 
821 279 491 483 
822 195 521 380 
823 500 543 486 
824 339 481 305 
825 192 526 398 
826 305 481 264 
827 310 340 339 
828 11 171 137 
829 178 264 263 
830 499 507 416 
831 427 492 424 
832 401 498 412 
833 467 500 355 
834 140 493 240 
835 224 510 478 
836 152 494 241 
837 242 495 97 
838 183 187 182 
839 188 197 187 
840 303 499 415 
841 328 491 279 
842 337 535 286 
843 488 520 335 
844 448 517 458 
845 157 539 388 
846 193 515 390 
847 183 188 187 
848 160 520 112 
849 80 521 195 
850 159 521 81 
851 164 525 442 
852 192 522 84 
853 337 498 405 
854 125 524 124 
855 63 167 6 
856 219 516 496 
857 327 517 414 
858 411 547 479 
859 397 548 157 
860 407 549 387 
861 317 525 289 
862 85 526 192 
863 163 526 86 
864 461 512 317 
865 365 566 368 
866 182 407 179 
867 258 544 406 
868 195 531 79 
869 78 531 156 
870 348 529 347 
871 203 530 205 
872 65 408 207 
873 437 542 73 
874 64 514 63 
875 294 497 272 
876 340 341 339 
877 180 183 182 
878 102 533 196 
879 72 542 162 
880 173 174 170 
881 175 176 174 
882 180 182 179 
883 332 557 333 
884 438 537 91 
885 90 537 164 
886 285 484 332 
887 283 284 274 
888 177 179 176 
889 167 168 6 
890 285 332 287 
891 471 472 190 
892 193 539 117 
893 116 539 157 
894 382 509 487 
895 120 545 119 
896 332 333 287 
897 433 546 430 
898 118 515 193 
899 392 540 391 
900 169 170 168 
901 157 548 115 
902 210 535 208 
903 76 556 75 
904 12 551 141 
905 147 551 12 
906 460 502 222 
907 5 552 153 
908 59 552 5 
909 8 553 95 
910 96 553 8 
911 9 554 104 
912 105 554 9 
913 431 554 282 
914 177 199 180 
915 347 523 346 
916 405 498 401 
917 462 564 226 
918 297 519 473 
919 7 541 66 
920 207 514 64 
921 240 507 499 
922 166 504 126 
923 177 180 179 
924 316 500 467 
925 490 499 303 
926 230 505 462 
927 349 512 461 
928 258 518 201 
929 173 175 174 
930 465 501 482 
931 437 538 328 
932 175 177 176 
933 276 285 283 
934 119 515 118 
935 285 287 283 
936 185 529 438 
937 169 173 170 
938 360 511 356 
939 489 571 334 
940 517 576 160 
941 240 499 490 
942 378 508 420 
943 208 544 204 
944 498 563 166 
945 221 510 224 
946 167 169 168 
947 156 511 77 
948 441 512 163 
949 416 555 474 
950 173 219 175 
951 202 544 258 
952 265 267 266 
953 486 543 321 
954 198 558 203 
955 267 276 274 
956 491 538 469 
957 63 514 167 
958 278 565 489 
959 469 538 158 
960 183 532 200 
961 488 571 155 
962 190 472 464 
963 390 515 393 
964 218 560 503 
965 333 506 287 
966 366 534 384 
967 479 561 410 
968 436 571 489 
969 349 577 512 
970 403 518 402 
971 391 540 505 
972 501 519 482 
973 171 471 137 
974 207 550 514 
975 276 283 274 
976 167 329 169 
977 267 274 266 
978 487 509 353 
979 370 522 352 
980 493 507 240 
981 512 577 163 
982 464 560 383 
983 458 517 327 
984 190 464 404 
985 154 527 400 
986 431 533 103 
987 241 561 479 
988 385 558 200 
989 283 503 284 
990 355 574 340 
991 341 528 387 
992 316 543 500 
993 158 538 437 
994 489 565 436 
995 112 520 111 
996 81 521 80 
997 84 522 83 
998 190 404 135 
999 324 523 423 
1000 201 518 260 
1001 177 513 199 
1002 124 524 165 
1003 200 558 188 
1004 289 525 372 
1005 482 519 297 
1006 287 503 283 
1007 287 506 503 
1008 86 526 85 
1009 382 562 509 
1010 514 550 329 
1011 199 532 180 
1012 456 529 348 
1013 79 531 78 
1014 375 534 366 
1015 432 533 431 
1016 103 533 102 
1017 205 530 273 
1018 414 548 397 
1019 114 548 414 
1020 159 562 521 
1021 497 565 278 
1022 480 534 375 
1023 175 513 177 
1024 91 537 90 
1025 315 534 480 
1026 286 535 210 
1027 474 547 411 
1028 419 547 184 
1029 173 516 219 
1030 395 540 392 
1031 167 514 329 
1032 117 539 116 
1033 73 542 72 
1034 180 532 183 
1035 184 547 474 
1036 336 563 337 
1037 354 543 316 
1038 219 513 175 
1039 141 551 493 
1040 513 566 199 
1041 153 552 494 
1042 495 553 96 
1043 161 545 120 
1044 430 546 432 
1045 169 516 173 
1046 163 577 526 
1047 439 567 242 
1048 439 568 567 
1049 115 548 114 
1050 172 568 439 
1051 501 572 519 
1052 172 570 568 
1053 398 577 349 
1054 492 572 426 
1055 440 570 172 
1056 340 528 341 
1057 440 573 570 
1058 196 573 440 
1059 204 544 202 
1060 322 551 147 
1061 323 552 59 
1062 95 553 324 
1063 282 554 105 
1064 404 536 134 
1065 75 556 158 
1066 191 574 466 
1067 160 576 520 
1068 260 575 476 
1069 335 576 448 
1070 426 572 501 
1071 428 572 492 
1072 380 562 382 
1073 436 565 434 
1074 328 538 491 
1075 329 516 169 
1076 509 562 159 
1077 346 567 344 
1078 226 564 460 
1079 567 568 344 
1080 434 565 497 
1081 344 568 342 
1082 568 570 342 
1083 342 570 330 
1084 155 571 436 
1085 66 541 408 
1086 570 573 330 
1087 330 573 443 
1088 493 551 322 
1089 494 552 323 
1090 324 553 495 
1091 188 558 198 
1092 505 540 462 
1093 337 563 498 
1094 494 561 241 
1095 519 572 428 
1096 521 562 380 
1097 242 569 495 
1098 507 555 416 
1099 346 569 567 
1100 503 560 284 
1101 484 575 332 
1102 567 569 242 
1103 476 575 484 
1104 520 576 335 
1105 526 577 398 
1106 557 575 260 
1107 528 574 191 
1108 523 569 346 
1109 340 574 528 
1110 332 575 557 
2 2 2 386
1111 24 651 625 
1112 48 660 626 
1113 624 662 18 
1114 623 667 42 
1115 613 646 31 
1116 35 648 612 
1117 99 638 100 
1118 619 658 17 
1119 618 657 41 
1120 25 669 621 
1121 49 670 620 
1122 55 591 54 
1123 80 640 81 
1124 118 639 119 
1125 594 628 10 
1126 617 671 40 
1127 616 672 16 
1128 26 654 614 
1129 50 653 615 
1130 594 693 628 
1131 591 689 54 
1132 598 635 13 
1133 34 622 33 
1134 610 611 580 
1135 607 649 15 
1136 608 650 39 
1137 27 666 605 
1138 51 665 606 
1139 22 636 21 
1140 46 637 45 
1141 604 673 38 
1142 28 668 601 
1143 32 613 31 
1144 35 612 34 
1145 20 629 19 
1146 23 631 22 
1147 44 630 43 
1148 47 632 46 
1149 143 596 585 
1150 36 599 35 
1151 31 600 30 
1152 589 695 673 
1153 668 696 588 
1154 24 625 23 
1155 48 626 47 
1156 19 624 18 
1157 43 623 42 
1158 603 674 14 
1159 52 661 602 
1160 36 635 599 
1161 609 645 579 
1162 18 619 17 
1163 42 618 41 
1164 25 621 24 
1165 49 620 48 
1166 17 616 16 
1167 41 617 40 
1168 26 614 25 
1169 50 615 49 
1170 16 607 15 
1171 40 608 39 
1172 27 605 26 
1173 51 606 50 
1174 15 603 14 
1175 39 604 38 
1176 28 601 27 
1177 52 602 51 
1178 14 598 13 
1179 53 597 52 
1180 100 638 622 
1181 578 697 642 
1182 582 591 55 
1183 590 645 609 
1184 53 634 597 
1185 58 584 57 
1186 143 585 142 
1187 600 634 30 
1188 81 640 637 
1189 119 639 636 
1190 597 634 8 
1191 611 679 580 
1192 3 634 53 
1193 145 590 583 
1194 32 682 613 
1195 642 643 578 
1196 585 693 594 
1197 56 582 55 
1198 145 583 144 
1199 590 609 583 
1200 599 648 35 
1201 31 646 600 
1202 14 674 598 
1203 597 661 52 
1204 30 634 3 
1205 146 590 145 
1206 65 633 581 
1207 20 684 629 
1208 44 683 630 
1209 601 666 27 
1210 602 665 51 
1211 15 649 603 
1212 39 650 604 
1213 611 680 586 
1214 612 647 34 
1215 144 694 143 
1216 584 641 57 
1217 586 679 611 
1218 143 694 596 
1219 57 692 56 
1220 642 697 592 
1221 16 672 607 
1222 40 671 608 
1223 605 654 26 
1224 606 653 50 
1225 582 592 591 
1226 2 675 29 
1227 37 676 4 
1228 609 611 610 
1229 614 669 25 
1230 615 670 49 
1231 17 658 616 
1232 41 657 617 
1233 134 580 135 
1234 65 581 66 
1235 8 634 600 
1236 620 660 48 
1237 18 662 619 
1238 42 667 618 
1239 621 651 24 
1240 136 586 137 
1241 63 587 64 
1242 43 655 623 
1243 19 663 624 
1244 625 656 23 
1245 626 664 47 
1246 631 659 22 
1247 632 652 46 
1248 10 628 134 
1249 673 695 38 
1250 28 696 668 
1251 9 635 598 
1252 134 628 580 
1253 595 688 584 
1254 594 696 675 
1255 676 695 595 
1256 635 698 13 
1257 580 679 135 
1258 638 682 32 
1259 64 633 65 
1260 580 681 610 
1261 587 643 642 
1262 596 693 585 
1263 579 680 609 
1264 66 627 7 
1265 4 676 58 
1266 142 675 2 
1267 60 578 61 
1268 139 579 140 
1269 622 638 33 
1270 641 685 593 
1271 633 677 581 
1272 639 684 20 
1273 640 683 44 
1274 584 676 595 
1275 594 675 585 
1276 609 610 583 
1277 133 588 10 
1278 7 589 67 
1279 141 686 12 
1280 609 680 611 
1281 12 686 146 
1282 62 690 6 
1283 11 691 138 
1284 99 682 638 
1285 5 689 59 
1286 54 689 5 
1287 582 593 592 
1288 6 690 63 
1289 137 691 11 
1290 596 694 610 
1291 136 679 586 
1292 578 643 61 
1293 139 644 579 
1294 636 639 21 
1295 637 640 45 
1296 33 638 32 
1297 610 694 583 
1298 641 692 57 
1299 586 680 644 
1300 80 683 640 
1301 118 684 639 
1302 21 639 20 
1303 45 640 44 
1304 592 697 591 
1305 579 645 140 
1306 140 645 141 
1307 587 642 633 
1308 61 643 62 
1309 138 644 139 
1310 146 686 590 
1311 593 692 641 
1312 587 633 64 
1313 677 685 581 
1314 135 679 136 
1315 581 627 66 
1316 60 678 578 
1317 13 698 1 
1318 29 696 28 
1319 38 695 37 
1320 610 681 596 
1321 59 678 60 
1322 593 685 677 
1323 67 673 68 
1324 132 668 133 
1325 593 677 592 
1326 96 646 97 
1327 100 622 101 
1328 102 612 103 
1329 104 599 9 
1330 97 613 98 
1331 8 600 96 
1332 103 648 104 
1333 101 647 102 
1334 642 677 633 
1335 588 594 10 
1336 7 595 589 
1337 58 676 584 
1338 585 675 142 
1339 592 677 642 
1340 628 681 580 
1341 93 602 94 
1342 131 601 132 
1343 95 597 8 
1344 83 632 84 
1345 72 617 73 
1346 74 618 75 
1347 87 620 88 
1348 110 616 111 
1349 112 619 113 
1350 121 631 122 
1351 85 626 86 
1352 116 629 117 
1353 125 621 126 
1354 89 615 90 
1355 77 655 78 
1356 123 625 124 
1357 76 623 77 
1358 78 630 79 
1359 82 652 83 
1360 114 624 115 
1361 70 608 71 
1362 111 658 112 
1363 73 657 74 
1364 81 637 82 
1365 108 607 109 
1366 119 636 120 
1367 127 614 128 
1368 122 656 123 
1369 75 667 76 
1370 113 662 114 
1371 115 663 116 
1372 124 651 125 
1373 69 650 70 
1374 84 664 85 
1375 86 660 87 
1376 91 606 92 
1377 107 649 108 
1378 120 659 121 
1379 129 605 130 
1380 9 598 105 
1381 88 670 89 
1382 126 669 127 
1383 68 604 69 
1384 90 653 91 
1385 106 603 107 
1386 128 654 129 
1387 105 674 106 
1388 92 665 93 
1389 130 666 131 
1390 71 671 72 
1391 94 661 95 
1392 109 672 110 
1393 1 698 36 
1394 584 688 687 
1395 586 691 137 
1396 63 690 587 
1397 644 680 579 
1398 582 692 593 
1399 98 682 99 
1400 79 683 80 
1401 117 684 118 
1402 599 635 9 
1403 36 698 635 
1404 589 673 67 
1405 133 668 588 
1406 675 696 29 
1407 37 695 676 
1408 56 692 582 
1409 7 688 595 
1410 678 689 591 
1411 583 694 144 
1412 601 668 132 
1413 68 673 604 
1414 628 693 681 
1415 641 687 685 
1416 643 690 62 
1417 138 691 644 
1418 584 687 641 
1419 600 646 96 
1420 104 648 599 
1421 102 647 612 
1422 612 648 103 
1423 622 647 101 
1424 97 646 613 
1425 644 691 586 
1426 587 690 643 
1427 645 686 141 
1428 627 688 7 
1429 581 685 627 
1430 590 686 645 
1431 598 674 105 
1432 615 653 90 
1433 93 665 602 
1434 131 666 601 
1435 604 650 69 
1436 603 649 107 
1437 72 671 617 
1438 110 672 616 
1439 614 654 128 
1440 70 650 608 
1441 620 670 88 
1442 78 655 630 
1443 83 652 632 
1444 637 652 82 
1445 108 649 607 
1446 631 656 122 
1447 621 669 126 
1448 116 663 629 
1449 632 664 84 
1450 626 660 86 
1451 87 660 620 
1452 625 651 124 
1453 623 655 77 
1454 624 663 115 
1455 121 659 631 
1456 125 651 621 
1457 618 667 75 
1458 619 662 113 
1459 114 662 624 
1460 76 667 623 
1461 616 658 111 
1462 636 659 120 
1463 617 657 73 
1464 89 670 615 
1465 85 664 626 
1466 127 669 614 
1467 123 656 625 
1468 112 658 619 
1469 74 657 618 
1470 602 661 94 
1471 606 665 92 
1472 605 666 130 
1473 91 653 606 
1474 129 654 605 
1475 95 661 597 
1476 106 674 603 
1477 608 671 71 
1478 607 672 109 
1479 613 682 98 
1480 678 697 578 
1481 629 684 117 
1482 630 683 79 
1483 681 693 596 
1484 59 689 678 
1485 595 695 589 
1486 588 696 594 
1487 591 697 678 
1488 687 688 627 
1489 685 687 627 
1490 629 663 19 
1491 22 659 636 
1492 23 656 631 
1493 34 647 622 
1494 630 655 43 
1495 46 652 637 
1496 47 664 632 
$EndElements
