$MeshFormat
4.1 0 8
$EndMeshFormat
$PhysicalNames
2
3 1 "outer_volume"
3 2 "inner_volume"
$EndPhysicalNames
$Entities
6 9 8 2
1 0.1 -2.449212707644755e-17 0.225 0 
2 0.1 -2.449212707644755e-17 0.02499999999999999 0 
3 0.04 -9.796850830579018e-18 0.02499999999999999 0 
4 0.04 -9.796850830579018e-18 0 0 
5 0.125 -3.061515884555943e-17 0.25 0 
6 0.125 -3.061515884555943e-17 0 0 
1 -0.1000001 -0.1000001 0.2249999 0.1000001 0.1000001 0.2250001 0 2 1 -1 
2 0.0999999 -1.000000000244921e-07 0.02499989999999999 0.1000001 9.999999997550787e-08 0.2250001 0 2 2 -1 
3 -0.1000001 -0.1000001 0.0249999 0.1000001 0.1000001 0.02500009999999999 0 2 2 -2 
4 -0.0400001 -0.0400001 0.0249999 0.0400001 0.0400001 0.02500009999999999 0 2 3 -3 
5 0.0399999 -1.000000000097968e-07 -9.999999999940612e-08 0.0400001 9.999999999020315e-08 0.02500009999999999 0 2 4 -3 
6 -0.0400001 -0.0400001 -1e-07 0.0400001 0.0400001 1e-07 0 2 4 -4 
7 -0.1250001 -0.1250001 0.2499999 0.1250001 0.1250001 0.2500001 0 2 5 -5 
8 0.1249999 -1.000000000306152e-07 -1.000000000028756e-07 0.1250001 9.999999996938484e-08 0.2500001 0 2 6 -5 
9 -0.1250001 -0.1250001 -1e-07 0.1250001 0.1250001 1e-07 0 2 6 -6 
1 -0.1000001 -0.1000001 0.02499989999999999 0.1000001 0.1000001 0.2250001 0 4 -1 -2 3 2 
2 -0.1000001 -0.1000001 0.2249999 0.1000001 0.1000001 0.2250001 0 1 1 
3 -0.1000001 -0.1000001 0.0249999 0.1000001 0.1000001 0.02500009999999999 0 2 3 -4 
4 -0.0400001 -0.0400001 -9.999999999940612e-08 0.0400001 0.0400001 0.02500009999999999 0 4 -4 -5 6 5 
5 -0.0400001 -0.0400001 -1e-07 0.0400001 0.0400001 1e-07 0 1 6 
6 -0.1250001 -0.1250001 -1.000000000028756e-07 0.1250001 0.1250001 0.2500001 0 4 -7 -8 9 8 
7 -0.1250001 -0.1250001 0.2499999 0.1250001 0.1250001 0.2500001 0 1 7 
8 -0.1250001 -0.1250001 -1e-07 0.1250001 0.1250001 1e-07 0 2 9 -6 
1 -0.1000001 -0.1000001 -1.000000000028756e-07 0.1000001 0.1000001 0.2250001 0 5 1 2 -3 4 -5 
2 -0.1250001 -0.1250001 -1.000000000028756e-07 0.1250001 0.1250001 0.2500001 0 7 6 7 -8 -4 3 -1 -2 
$EndEntities
$Nodes
25 413 1 413
0 1 0 1
1
0.1 -2.449212707644755e-17 0.225
0 2 0 1
2
0.1 -2.449212707644755e-17 0.02499999999999999
0 3 0 1
3
0.04 -9.796850830579018e-18 0.02499999999999999
0 4 0 1
4
0.04 -9.796850830579018e-18 0
0 5 0 1
5
0.125 -3.061515884555943e-17 0.25
0 6 0 1
6
0.125 -3.061515884555943e-17 0
1 1 0 14
7
8
9
10
11
12
13
14
15
16
17
18
19
20
0.09135454576426009 0.04067366430758004 0.225
0.06691306063588578 0.07431448254773947 0.225
0.03090169943749471 0.09510565162951537 0.225
-0.01045284632676536 0.09945218953682733 0.225
-0.05000000000000006 0.08660254037844384 0.225
-0.08090169943749474 0.05877852522924733 0.225
-0.09781476007338057 0.02079116908177597 0.225
-0.09781476007338058 -0.02079116908177586 0.225
-0.08090169943749473 -0.05877852522924734 0.225
-0.04999999999999982 -0.08660254037844398 0.225
-0.01045284632676525 -0.09945218953682734 0.225
0.03090169943749481 -0.09510565162951534 0.225
0.06691306063588585 -0.07431448254773941 0.225
0.09135454576426011 -0.04067366430758002 0.225
1 2 0 4
21
22
23
24
0.1 -2.449212707644755e-17 0.06499999999999997
0.1 -2.449212707644755e-17 0.105
0.1 -2.449212707644755e-17 0.145
0.1 -2.449212707644755e-17 0.1849999999999999
1 3 0 14
25
26
27
28
29
30
31
32
33
34
35
36
37
38
0.09135454576426009 0.04067366430758004 0.02499999999999999
0.06691306063588578 0.07431448254773947 0.02499999999999999
0.03090169943749471 0.09510565162951537 0.02499999999999999
-0.01045284632676536 0.09945218953682733 0.02499999999999999
-0.05000000000000006 0.08660254037844384 0.02499999999999999
-0.08090169943749474 0.05877852522924733 0.02499999999999999
-0.09781476007338057 0.02079116908177597 0.02499999999999999
-0.09781476007338058 -0.02079116908177586 0.02499999999999999
-0.08090169943749473 -0.05877852522924734 0.02499999999999999
-0.04999999999999982 -0.08660254037844398 0.02499999999999999
-0.01045284632676525 -0.09945218953682734 0.02499999999999999
0.03090169943749481 -0.09510565162951534 0.02499999999999999
0.06691306063588585 -0.07431448254773941 0.02499999999999999
0.09135454576426011 -0.04067366430758002 0.02499999999999999
1 4 0 6
39
40
41
42
43
44
0.02493959207434933 0.0312732592987212 0.02499999999999999
-0.008900837358252582 0.03899711648727294 0.02499999999999999
-0.03603875471609681 0.01735534956470223 0.02499999999999999
-0.03603875471609665 -0.01735534956470256 0.02499999999999999
-0.008900837358252202 -0.03899711648727303 0.02499999999999999
0.0249395920743495 -0.03127325929872107 0.02499999999999999
1 5 0 0
1 6 0 6
45
46
47
48
49
50
0.02493959207434933 0.0312732592987212 0
-0.008900837358252582 0.03899711648727294 0
-0.03603875471609681 0.01735534956470223 0
-0.03603875471609665 -0.01735534956470256 0
-0.008900837358252202 -0.03899711648727303 0
0.0249395920743495 -0.03127325929872107 0
1 7 0 18
51
52
53
54
55
56
57
58
59
60
61
62
63
64
65
66
67
68
0.1182271552125793 0.04058743365058545 0.25
0.09864256367454918 0.07677658908620849 0.25
0.06836851976530332 0.1046458097828161 0.25
0.03068568589259982 0.1211750332424163 0.25
-0.01032241818404162 0.1245730616258337 0.25
-0.05021192808162125 0.1144716658318821 0.25
-0.08466019645321769 0.09196548883414139 0.25
-0.1099342189008112 0.05949342412963406 0.25
-0.1232951629253403 0.0205743237850917 0.25
-0.1232951629253403 -0.02057432378509183 0.25
-0.1099342189008111 -0.05949342412963424 0.25
-0.08466019645321768 -0.09196548883414141 0.25
-0.05021192808162134 -0.1144716658318821 0.25
-0.01032241818404181 -0.1245730616258337 0.25
0.03068568589259953 -0.1211750332424164 0.25
0.06836851976530285 -0.1046458097828164 0.25
0.09864256367454884 -0.07677658908620895 0.25
0.1182271552125792 -0.04058743365058568 0.25
1 8 0 5
69
70
71
72
73
0.125 -3.061515884555943e-17 0.04166666666666675
0.125 -3.061515884555943e-17 0.0833333333333334
0.125 -3.061515884555943e-17 0.1250000000000001
0.125 -3.061515884555943e-17 0.1666666666666667
0.125 -3.061515884555943e-17 0.2083333333333333
1 9 0 18
74
75
76
77
78
79
80
81
82
83
84
85
86
87
88
89
90
91
0.1182271552125793 0.04058743365058545 0
0.09864256367454918 0.07677658908620849 0
0.06836851976530332 0.1046458097828161 0
0.03068568589259982 0.1211750332424163 0
-0.01032241818404162 0.1245730616258337 0
-0.05021192808162125 0.1144716658318821 0
-0.08466019645321769 0.09196548883414139 0
-0.1099342189008112 0.05949342412963406 0
-0.1232951629253403 0.0205743237850917 0
-0.1232951629253403 -0.02057432378509183 0
-0.1099342189008111 -0.05949342412963424 0
-0.08466019645321768 -0.09196548883414141 0
-0.05021192808162134 -0.1144716658318821 0
-0.01032241818404181 -0.1245730616258337 0
0.03068568589259953 -0.1211750332424164 0
0.06836851976530285 -0.1046458097828164 0
0.09864256367454884 -0.07677658908620895 0
0.1182271552125792 -0.04058743365058568 0
2 1 0 73
92
93
94
95
96
97
98
99
100
101
102
103
104
105
106
107
108
109
110
111
112
113
114
115
116
117
118
119
120
121
122
123
124
125
126
127
128
129
130
131
132
133
134
135
136
137
138
139
140
141
142
143
144
145
146
147
148
149
150
151
152
153
154
155
156
157
158
159
160
161
162
163
164
0.0940000000000001 0.03411744421846372 0.125
0.09409642196968182 -0.03385060372435891 0.1259149298721524
-0.03090169943749459 -0.09510565162951541 0.1890550022697999
-0.06691306063588585 0.0743144825477394 0.1890550022697999
-0.09999999997687339 2.150656257373316e-06 0.1890671924826815
0.01113787729702082 0.09937780279980288 0.1855945375148992
0.01125790198481437 -0.09936427749901025 0.06414188418188654
-0.06633437301784122 -0.07483148372396407 0.0540594830179365
-0.09135454576426008 0.04067366430758004 0.06094499773020011
-0.03090169943749478 0.09510565162951534 0.06094499773020012
0.04999999999999995 0.08660254037844389 0.06094499773051249
0.05000000000000002 -0.08660254037844387 0.1890550022694875
0.07998484552848337 0.06002020064765408 0.1856849164235828
0.07998484552848151 -0.06002020064765656 0.0643150835764095
0.09400000000000959 0.03411744421843755 0.08499999999999999
0.07626752983506235 0.06467815622648712 0.1049999999999758
0.07643086058686649 0.06448506454948293 0.1457700765738716
0.04862153130526498 0.0873839040872582 0.1287632606636965
0.04930961905760386 0.08699747966690755 0.1640872590709269
0.01522626843892412 0.0988340060375265 0.1464270104449796
0.01406857751188378 0.09900542978439172 0.1090760653282483
-0.02079831232491357 0.09781324145756212 0.1259752187797223
0.09400000000000644 -0.03411744421844622 0.1649999999999999
0.07626752983505571 -0.06467815622649496 0.1450000000000264
0.0764308605868554 -0.06448506454949607 0.1042299234261301
0.04862153130525199 -0.08738390408726542 0.1212367393363246
0.0493095412672526 -0.08699752375793873 0.08589757151658756
0.01493133668425126 -0.09887899263656327 0.1052030819009256
0.01347471913430565 -0.09908800101047341 0.1396390826771282
-0.02079831232496667 -0.09781324145755083 0.1240247812203105
0.01111303948386572 0.09938058338241954 0.06601401399339123
0.0114041455578019 -0.09934759918637424 0.1781173535780284
-0.06691306063588574 -0.07431448254773949 0.1890550022696912
-0.04999999999991851 -0.08660254037849091 0.1531100045395455
-0.08089711010351211 -0.05878484138704672 0.1531253792445718
-0.06617582071390878 -0.07497173302545836 0.120801185504836
-0.09133534148285574 -0.04071677045407866 0.1186433222689234
-0.09135250520732822 -0.04067824716411798 0.1890883601668407
-0.09783808503659502 -0.02068112947524875 0.1535959072381147
-0.09781575474027697 0.02078648899140942 0.1531677811562112
-0.09135273501823919 0.04067773106611744 0.1890689781643952
-0.04167242839906692 -0.09090329318195597 0.08924509207184184
-0.080927722312788 0.05874269113059322 0.1531372951981723
-0.09136921422738112 0.04064070239883825 0.1171760324377393
-0.06637278871504353 0.07479741250998052 0.121755180792132
-0.05020933152481684 0.08648134497006298 0.1561543502340542
-0.03136381924893197 0.09495425657715574 0.1904281410929173
-0.09132452795384383 -0.04074101856860723 0.05797355671878422
-0.09999999974147628 -7.190601376114365e-06 0.05953219747189172
-0.06596574725481653 0.07515663769164815 0.05655643834518403
-0.09999999356516684 -3.587431660452195e-05 0.1186266454198721
0.07960497902794031 0.06052311388189792 0.05973845662831186
0.07960497902793812 -0.06052311388190081 0.1902615433716901
0.09428647741903665 0.03331756557597648 0.1635495660259587
0.09428647741903663 -0.03331756557597652 0.08645043397404176
-0.04240651485949974 0.09056316854809703 0.09340897273081225
-0.03077535951489451 -0.09514660922349778 0.05699233590380359
-0.08018416791842072 -0.05975365440900256 0.0879235122646696
-0.09775187193950891 -0.02108486500601441 0.08842100410669845
-0.09785982080699654 0.02057803371613837 0.08902434011848118
-0.07979429515420999 0.06027329807504167 0.08966405731331761
-0.01669809953122793 -0.09859601144085499 0.1580297916381055
-0.01584994836966434 0.09873590601538518 0.1591918450681455
0.04561115326643829 0.08899226201027523 0.09751379532960269
0.04577832995400968 -0.0889063805731727 0.1516472343322156
0.05000000000000002 -0.08660254037844387 0.05026838062162598
0.04999999999999998 0.08660254037844389 0.1997316193783786
0.09543819836866578 -0.02985883943061421 0.05476827318674975
0.09543819836867573 0.02985883943058242 0.195231726813235
-0.01273164560520217 0.09918621476890595 0.09021608747201415
0.09566090030668475 -0.02913746990585356 0.1960065301169674
0.09566090030669508 0.02913746990581965 0.05399346988305329
-0.01221977246302821 -0.09925057763535594 0.08787800372204368
2 2 0 22
165
166
167
168
169
170
171
172
173
174
175
176
177
178
179
180
181
182
183
184
185
186
-0.01909830056250521 -0.05877852522924745 0.225
0.007413220501428983 0.07153045025268895 0.225
0.06222359725353204 -0.01331103532292066 0.225
-0.06359751768825783 -0.0008164753121254524 0.225
-0.04135454576426016 0.04592887607086388 0.225
0.04999999999999999 0.03632712640026804 0.225
0.03286136850578975 -0.05680266103151388 0.225
-0.04999999999999997 -0.05553062574145974 0.225
-0.03090169943749465 -0.02245139882897925 0.225
-0.03077713788819583 0.01254282386468867 0.225
0.001937577091329352 -0.006024858611346469 0.225
0.004581885401165968 0.03794478535956324 0.225
0.003985635096013147 -0.03792078488500947 0.225
-0.01942773590696157 0.06908457253118441 0.225
-0.06694419705554416 -0.03085965347771642 0.225
0.007810766857344675 -0.07431448254773945 0.225
0.07309093258015015 0.01553595731849213 0.225
0.03516498810256038 0.007474548962247438 0.225
-0.06826361318410999 0.03039291875237177 0.225
0.03350481335274369 0.06352113742058033 0.225
0.06045284632676538 -0.04392156379536768 0.225
0.03277100206266501 -0.02508439244731845 0.225
2 3 0 14
187
188
189
190
191
192
193
194
195
196
197
198
199
200
-0.06609910194527964 -3.031256567584652e-16 0.02499999999999999
-0.04121211597490268 0.05167835886368334 0.02499999999999999
-0.04121211597490215 -0.05167835886368367 0.02499999999999999
0.01470433307918302 -0.06442389259308044 0.02499999999999999
0.01470433307918254 0.06442389259308058 0.02499999999999999
0.05920333443325372 -0.02851082321182862 0.02499999999999999
0.05920333443325361 0.02851082321182875 0.02499999999999999
-0.01749948266221187 0.06862347459433746 0.02499999999999999
-0.0174994826622114 -0.06862347459433751 0.02499999999999999
-0.0640214286696925 -0.03035765366743014 0.02499999999999999
-0.06402142866969274 0.03035765366742969 0.02499999999999999
0.04052333146835529 -0.05770669317525041 0.02499999999999999
0.04052333146835505 0.05770669317525058 0.02499999999999999
0.06999999999999999 -0.0005162079564945497 0.02499999999999999
2 4 0 7
201
202
203
204
205
206
207
-0.04 -1.727372585247355e-16 0.01246574374684336
-0.0249395920743491 -0.03127325929872139 0.01246574374684336
-0.02493959207434938 0.03127325929872116 0.01246574374684336
0.03603875471609676 0.01735534956470233 0.01314426148227136
0.008900837358252561 0.03899711648727295 0.01246574374684336
0.008900837358252915 -0.03899711648727287 0.01253425625315663
0.03603875471609681 -0.01735534956470224 0.01185573851772868
2 5 0 1
208
8.177982101033518e-17 -4.361590453884543e-17 0
2 6 0 118
209
210
211
212
213
214
215
216
217
218
219
220
221
222
223
224
225
226
227
228
229
230
231
232
233
234
235
236
237
238
239
240
241
242
243
244
245
246
247
248
249
250
251
252
253
254
255
256
257
258
259
260
261
262
263
264
265
266
267
268
269
270
271
272
273
274
275
276
277
278
279
280
281
282
283
284
285
286
287
288
289
290
291
292
293
294
295
296
297
298
299
300
301
302
303
304
305
306
307
308
309
310
311
312
313
314
315
316
317
318
319
320
321
322
323
324
325
326
0.05021192808162069 -0.1144716658318824 0.2144050294537244
-0.09864256367454921 -0.07677658908620848 0.03559497054627567
-0.11839478275172 0.04009582792726718 0.03984016282827149
0.01032241818404147 0.1245730616258337 0.2144050294537242
0.01032241818404121 -0.1245730616258338 0.03559497054627563
-0.06793370616330355 -0.1049286022346526 0.2159849677242317
-0.125 -9.571472303973594e-17 0.2144050294537243
0.05021192808162114 0.1144716658318822 0.03559497054627579
0.1198006597737767 -0.03567634955776459 0.1041780030012296
0.1197916666666659 0.03570653437709129 0.1458333333333334
-0.06852336167133541 0.1045444829020612 0.03127438852798969
-0.06772871521987743 0.105061035282662 0.2214901658899546
0.0846601964532176 0.09196548883414149 0.2144050294536991
0.08466019645321723 -0.09196548883414182 0.03559497054630079
0.1199072909937953 -0.0353163073739214 0.1847103157618473
0.1197916666666667 0.03570653437708874 0.06250000000000007
0.119843937508105 -0.03553070000089238 0.1447070322977884
0.1046664438293403 -0.06833692659257912 0.1249999602311515
0.1046519741261722 -0.06835908360631361 0.08349368863618049
0.08060295428232978 -0.09554142431930066 0.1066495484286715
0.08079473685267971 -0.09537929805207332 0.1466590767361549
0.05058018806727194 -0.1143094246992758 0.1251537363064881
0.05062708677675429 -0.1142886612245458 0.08367700935298088
0.01624921450278118 -0.1239393522172946 0.1043485964188785
0.01625089543462757 -0.1239391318251536 0.1455657401659648
-0.01982607029205645 -0.1234176929648842 0.1285351137311428
-0.01937149884101861 -0.1234898580153545 0.1673453150700654
-0.05329039860848388 -0.1130713642623494 0.1448156961951166
-0.05338336891375374 -0.1130275007395018 0.1060157748492417
-0.08378165655267178 -0.09276655661007445 0.1209097108888722
-0.08365928030443542 -0.09287693372923066 0.1614425387506286
-0.1061713428086847 -0.06597458575997854 0.1449761697600104
-0.1061471364851538 -0.06601352449310773 0.1044377526025866
-0.120464763026059 -0.03336526440889475 0.1249840793779448
-0.1205276318401861 -0.03313744050159204 0.08416984181080329
-0.1249841146717571 0.00199275681332932 0.1044772509330692
-0.1249765872507142 0.002419222843107082 0.1432228359818208
-0.119327695487862 0.03722769250915335 0.1248896704180406
-0.1188676930561411 0.03867132720131315 0.1656279242541152
-0.1039739954356853 0.06938593714247938 0.1455938508685542
-0.1039906544387094 0.06936096733328433 0.1044565207984701
-0.08022251413274313 0.09586108817566087 0.1250640193214361
-0.1061355268532916 -0.06603218866260763 0.1867470437015554
-0.1038336039376532 0.06959585255831389 0.1833533918088682
-0.08054882444690585 0.09558706439796937 0.08760819886618526
-0.04974219514116671 0.1146765626557497 0.1051126694871466
-0.04980328794006848 0.1146500436561567 0.1455801833591258
-0.01427759489858878 0.1241819241432174 0.1255264838179749
-0.01491833585373185 0.1241065802258497 0.08388458382404837
0.02008449724506379 0.1233759010926081 0.1045252133931887
0.02008174680987096 0.123376348807477 0.1456901937694715
0.05410822694534696 0.1126822957559475 0.1251407927484191
0.05275495761782826 0.1133221710290671 0.1646784523784637
0.08339160654328331 0.09311734509816218 0.1431644501256733
0.08378686184476504 0.09276185521110633 0.1044062895151981
-0.1249913543683693 0.001470147326197352 0.06684174318286366
-0.1203926384600365 -0.03362458333765565 0.04508187864845715
0.01572473211250939 -0.1240069868998913 0.1835756111942148
-0.01939404635738711 -0.1234863189421708 0.2073282576041495
-0.1037114195967946 0.06977780051862924 0.06837220228116041
0.01977014015079839 0.1234266646977783 0.06527265753540265
-0.01340089945705847 0.1242795875988564 0.04861741334260399
0.1046673710875698 -0.06833550636101969 0.1663382883469698
0.08127074424982418 -0.09497402870827198 0.1840186246495172
0.1197794431039799 0.03574751753199695 0.103880939948856
0.1197985328282733 -0.03568349103147189 0.06254121084499879
0.1197985328282809 0.03568349103144608 0.1874587891549555
0.05060885346858329 -0.1142967363952071 0.1661489899801382
-0.08069041094964659 0.09546757345181218 0.1608902147491738
-0.1191778578205576 0.03770461782465059 0.08471362427317501
-0.1206019284482927 -0.03286601366994295 0.1611739784217044
0.05407362161542749 0.1126989061410605 0.08398781366179989
0.08305118883649089 0.09342108987185672 0.06372559361302801
-0.118326672919724 0.0402963829114805 0.2093582698634144
0.05037808057296076 -0.1143986407165062 0.04296577297127384
-0.03034853569585977 -0.1212599125066364 0.03420992914071461
-0.01000772236323737 -0.1245987379273978 0.06685777342270438
-0.0303230683929338 0.12126628353849 0.2165745413072344
-0.01103512595194955 0.1245119512144301 0.1737670798893937
-0.06862709254930439 -0.1044764191970093 0.03406576728560081
-0.08443845400713255 -0.09216912435780954 0.07640567575238964
0.05100882073220029 0.1141187986595997 0.2042456886966512
-0.1179664653171254 -0.041339001688278 0.2227860586646022
0.1046475434271699 -0.06836586615160069 0.2081048610396532
0.1058511502647456 0.06648709639945363 0.08452332135666864
0.1063593525345898 0.06567106005252876 0.03842933888746276
0.1067117067610037 0.06509694032866339 0.1621521903053766
0.1058884028917903 0.06642775122662135 0.1244055840949835
0.1089496092980355 -0.06127791309930038 0.04034492120557166
0.1084375453452638 0.06217956866603262 0.2082050014971454
-0.048313166939362 0.1152858963632991 0.06631965644407078
-0.04995977441195246 -0.114581939854005 0.07054190328087075
-0.05021192808162136 0.1144716658318821 0.183181532841927
-0.05132437129976866 -0.1139772297903554 0.1826953262227802
-0.107644025435285 -0.06354340082249081 0.06822425980329731
-0.09864256367454921 -0.07677658908620848 0.2204418225525925
-0.09864256367454929 0.07677658908620837 0.02890828238492267
-0.09864256367454925 0.07677658908620841 0.2211491222139289
-0.125 -9.571472303973594e-17 0.02826176952519316
0.02399207294741807 0.1226759162822343 0.17928561989474
0.07876242543010653 -0.09706431033272173 0.07560624852939489
-0.1249579083879351 0.003243629342636146 0.1764236879760905
0.08380680866808783 0.09274383440892725 0.1779657808633218
0.08389645613546654 -0.09266274681828582 0.2214541636491324
0.01225695997827468 -0.1243976162637009 0.2210097684078469
0.01561511919330862 0.1240208371709317 0.02999925810565513
0.02298753710030998 -0.1228681127797683 0.06672526831733597
0.1212848742109439 -0.0302486245577465 0.03061761418493903
0.1212848742109422 0.03024862455775358 0.2193823858150286
0.1208097281499175 0.03209376238995736 0.03415706246701467
0.1207301500905856 -0.03239183321617773 0.2131119184392788
0.08466019645321762 0.09196548883414148 0.02463547019474596
-0.0421368429474658 0.1176838411440611 0.03085257871388886
-0.08695059416162743 -0.0898030855535597 0.1959543955207442
-0.02655131710608265 -0.1221475646909599 0.09593165548821088
-0.1232591257162844 -0.0207891300360837 0.1927698912282682
-0.08584265462646956 0.09086274619821187 0.05483237873287366
-0.08574012963026258 0.09095949742047704 0.1948235217977198
2 7 0 31
327
328
329
330
331
332
333
334
335
336
337
338
339
340
341
342
343
344
345
346
347
348
349
350
351
352
353
354
355
356
357
0.03552911766542338 -0.0812508339749709 0.25
-0.04794514124530699 0.07338550180682525 0.25
0.07709413149481101 0.04172125757372112 0.25
-0.06917557472957915 -0.05384151098645376 0.25
-0.08297455450198361 0.02559200582046603 0.25
-0.02022342767908659 -0.08007478234932218 0.25
0.03882213882973645 0.08997363355034971 0.25
0.07709413149481076 -0.0417212575737213 0.25
0.09697228023375491 -0.01618181155181301 0.25
0.06322475737453544 -0.002178381574792723 0.25
0.03776856302249105 -0.04408031415621001 0.25
0.01872818757278462 -0.004413725663087045 0.25
-0.003756393053768937 -0.03915679955393837 0.25
-0.02239186989105615 -0.002531161673489926 0.25
-0.0004653132250030675 0.02964908066022796 0.25
-0.04371305168278324 0.03578901809156095 0.25
0.04091993611287954 0.03180803359727042 0.25
-0.0560771904088096 0.000812441979709105 0.25
-0.04192804903285222 -0.03725373230350887 0.25
-0.08674186511862107 -0.02034103930658317 0.25
-0.07567602103716556 0.05878309332560965 0.25
0.05736657718098424 0.06644399397814793 0.25
0.09610366486313614 0.01278969961954017 0.25
-0.02413444989195608 0.09530478732595211 0.25
-0.01463119130096559 0.06430739705034183 0.25
-0.05339193733495787 -0.0774594451864819 0.25
0.006795323092333165 0.09151209217890258 0.25
0.008254190390361876 -0.09717948690162792 0.25
0.06500144498264154 -0.07098624388339594 0.25
0.009561865451405766 -0.06792681835227193 0.25
0.02146791178166079 0.06228237183587339 0.25
2 8 0 31
358
359
360
361
362
363
364
365
366
367
368
369
370
371
372
373
374
375
376
377
378
379
380
381
382
383
384
385
386
387
388
-0.06654647303028005 -1.566207481167631e-16 0
0.05872468747698029 0.03091080617766081 0
0.05809107687566015 -0.03015152337096576 0
-0.04312615159570685 -0.05269716651950593 0
-0.0431261515957069 0.05269716651950573 0
0.01370795721812943 -0.06622137031949799 0
0.01370795721812937 0.06622137031949803 0
-0.02091704637351741 0.08339374686639783 0
-0.02091704637351744 -0.08339374686639792 0
0.06509460724848712 -0.06698796706774116 0
0.06509065853637136 0.06712042571550245 0
-0.08940753901687248 0.0286504167495046 0
-0.08940753901687244 -0.02865041674950481 0
0.09042925072402475 0.01753474861245301 0
0.00954079344711661 -0.09675362508696385 0
0.00954079344711661 0.09675362508696404 0
-0.05395461683076812 -0.08150815978159313 0
-0.05395461683076808 0.08150815978159318 0
0.08622286312490098 0.04658600064848204 0
0.08650038706401196 -0.04640849549847995 0
0.0908906553147035 -0.016180206524937 0
-0.09839037538294111 -1.013078509970455e-16 0
-0.07350340549225289 0.05760320027680208 0
-0.07350340549225286 -0.05760320027680225 0
0.03769884255835806 0.08493782795722221 0
0.03769950067704392 -0.08491575151592862 0
-0.06058885979684829 -0.03128875882998695 0
-0.06058885979684832 0.03128875882998654 0
0.06747539920217981 0.001025250630017682 0
0.03942847471624515 0.05492602721735296 0
0.03936429065802904 -0.05483278049329664 0
3 1 0 25
389
390
391
392
393
394
395
396
397
398
399
400
401
402
403
404
405
406
407
408
409
410
411
412
413
-6.938893903907228e-18 6.938893903907228e-18 0.116653006259387
-0.01458583947307419 -0.03651131479667755 0.1652936475038765
0.03920113239512161 -0.01887827039000404 0.07920642788231125
-0.0460588704591577 -2.116362640691705e-16 0.07811608443567949
0.03227416758700467 0.02418703986660144 0.1646474180012824
-0.01103530923648387 -0.0436681954455858 0.08080705613114045
-0.009712608422792151 0.04330870108484583 0.08146843238898595
-0.03219332067901737 0.02258678021197779 0.1641641775125231
-1.040834085586084e-17 6.938893903907228e-18 0.05480693271980629
0.03914090884381435 -0.02948680160432602 0.1710627001095143
0.03960917754142492 0.0320036293119012 0.07399548883092633
0.05292398194361098 -0.0006781729303609582 0.125
-0.04145402375825091 -0.02972448766300038 0.1194053943449573
0.01503370855611721 -0.04853954599839137 0.1249362855570428
0.01029073176695248 0.05163448784274743 0.127669555773011
-0.04268756111596793 0.03123681190459751 0.1164790630448998
-0.05107768338623744 -0.01741912224014345 0.1845635918176644
-0.004670404930055628 0.05563694684110926 0.1829076468443082
0.01319982592343958 -0.05535020201014838 0.1891954482609832
-0.04556254418889283 0.03347125329307557 0.05880769386341667
-0.04556254418889258 -0.03347125329307596 0.05880769386341665
0.02561866974916247 -0.05565338268758555 0.06447118983869776
0.0004759239980602445 0.0004812692658039399 0.1821595803521514
0.05935075662726959 0.004241716518394679 0.1880749895583602
-0.06148945689402502 0.001470029715384725 0.1409990658782031
3 2 0 0
$EndNodes
$Elements
25 2607 1 2607
0 1 15 1
1 1 
0 2 15 1
2 2 
0 3 15 1
3 3 
0 4 15 1
4 4 
0 5 15 1
5 5 
0 6 15 1
6 6 
1 1 1 15
7 1 7 
8 7 8 
9 8 9 
10 9 10 
11 10 11 
12 11 12 
13 12 13 
14 13 14 
15 14 15 
16 15 16 
17 16 17 
18 17 18 
19 18 19 
20 19 20 
21 20 1 
1 2 1 5
22 2 21 
23 21 22 
24 22 23 
25 23 24 
26 24 1 
1 3 1 15
27 2 25 
28 25 26 
29 26 27 
30 27 28 
31 28 29 
32 29 30 
33 30 31 
34 31 32 
35 32 33 
36 33 34 
37 34 35 
38 35 36 
39 36 37 
40 37 38 
41 38 2 
1 4 1 7
42 3 39 
43 39 40 
44 40 41 
45 41 42 
46 42 43 
47 43 44 
48 44 3 
1 5 1 1
49 4 3 
1 6 1 7
50 4 45 
51 45 46 
52 46 47 
53 47 48 
54 48 49 
55 49 50 
56 50 4 
1 7 1 19
57 5 51 
58 51 52 
59 52 53 
60 53 54 
61 54 55 
62 55 56 
63 56 57 
64 57 58 
65 58 59 
66 59 60 
67 60 61 
68 61 62 
69 62 63 
70 63 64 
71 64 65 
72 65 66 
73 66 67 
74 67 68 
75 68 5 
1 8 1 6
76 6 69 
77 69 70 
78 70 71 
79 71 72 
80 72 73 
81 73 5 
1 9 1 19
82 6 74 
83 74 75 
84 75 76 
85 76 77 
86 77 78 
87 78 79 
88 79 80 
89 80 81 
90 81 82 
91 82 83 
92 83 84 
93 84 85 
94 85 86 
95 86 87 
96 87 88 
97 88 89 
98 89 90 
99 90 91 
100 91 6 
2 1 2 184
101 1 160 7 
102 20 162 1 
103 24 160 1 
104 1 162 24 
105 21 159 2 
106 2 163 21 
107 25 163 2 
108 2 159 38 
109 7 104 8 
110 7 160 104 
111 8 158 9 
112 104 158 8 
113 9 97 10 
114 9 158 97 
115 10 138 11 
116 97 138 10 
117 11 95 12 
118 11 138 95 
119 12 132 13 
120 95 132 12 
121 13 96 14 
122 13 132 96 
123 14 129 15 
124 96 129 14 
125 15 124 16 
126 15 129 124 
127 16 94 17 
128 16 124 94 
129 17 123 18 
130 94 123 17 
131 18 103 19 
132 18 123 103 
133 19 144 20 
134 103 144 19 
135 144 162 20 
136 21 106 22 
137 22 146 21 
138 21 163 106 
139 146 159 21 
140 22 92 23 
141 23 93 22 
142 22 106 92 
143 93 146 22 
144 24 114 23 
145 23 145 24 
146 92 145 23 
147 23 114 93 
148 24 162 114 
149 145 160 24 
150 26 143 25 
151 143 163 25 
152 27 102 26 
153 102 143 26 
154 28 122 27 
155 27 122 102 
156 29 101 28 
157 101 122 28 
158 30 141 29 
159 29 141 101 
160 31 100 30 
161 100 141 30 
162 32 140 31 
163 31 140 100 
164 33 139 32 
165 139 140 32 
166 34 99 33 
167 99 139 33 
168 35 148 34 
169 34 148 99 
170 36 98 35 
171 98 148 35 
172 37 157 36 
173 36 157 98 
174 38 105 37 
175 105 157 37 
176 38 159 105 
177 106 107 92 
178 107 108 92 
179 108 145 92 
180 114 115 93 
181 115 116 93 
182 116 146 93 
183 94 153 123 
184 124 125 94 
185 125 153 94 
186 95 134 132 
187 95 137 134 
188 95 138 137 
189 96 130 129 
190 96 131 130 
191 96 132 131 
192 110 111 97 
193 97 158 110 
194 111 154 97 
195 97 154 138 
196 118 119 98 
197 98 157 118 
198 119 164 98 
199 98 164 148 
200 99 148 133 
201 133 149 99 
202 99 149 139 
203 140 151 100 
204 100 152 141 
205 151 152 100 
206 101 161 122 
207 141 147 101 
208 147 161 101 
209 107 143 102 
210 102 155 107 
211 122 155 102 
212 115 144 103 
213 103 156 115 
214 123 156 103 
215 108 110 104 
216 104 145 108 
217 110 158 104 
218 104 160 145 
219 116 118 105 
220 105 146 116 
221 118 157 105 
222 105 159 146 
223 106 143 107 
224 106 163 143 
225 107 109 108 
226 107 155 109 
227 109 110 108 
228 109 111 110 
229 109 112 111 
230 109 155 112 
231 112 113 111 
232 113 154 111 
233 112 161 113 
234 112 155 122 
235 122 161 112 
236 136 137 113 
237 113 147 136 
238 137 154 113 
239 113 161 147 
240 114 144 115 
241 114 162 144 
242 115 117 116 
243 115 156 117 
244 117 118 116 
245 117 119 118 
246 117 120 119 
247 117 156 120 
248 120 121 119 
249 121 164 119 
250 120 153 121 
251 123 153 120 
252 120 156 123 
253 125 127 121 
254 121 153 125 
255 127 133 121 
256 133 164 121 
257 124 126 125 
258 124 129 126 
259 126 127 125 
260 126 128 127 
261 126 130 128 
262 129 130 126 
263 128 149 127 
264 127 149 133 
265 130 142 128 
266 142 150 128 
267 128 150 149 
268 131 142 130 
269 132 134 131 
270 134 135 131 
271 135 142 131 
272 148 164 133 
273 134 136 135 
274 134 137 136 
275 136 152 135 
276 135 151 142 
277 135 152 151 
278 147 152 136 
279 138 154 137 
280 139 150 140 
281 149 150 139 
282 150 151 140 
283 141 152 147 
284 142 151 150 
2 2 2 57
285 7 181 1 
286 1 167 20 
287 1 181 167 
288 8 170 7 
289 170 181 7 
290 9 184 8 
291 8 184 170 
292 10 166 9 
293 166 184 9 
294 11 178 10 
295 10 178 166 
296 12 169 11 
297 169 178 11 
298 13 183 12 
299 12 183 169 
300 14 168 13 
301 168 183 13 
302 15 179 14 
303 14 179 168 
304 16 172 15 
305 172 179 15 
306 17 165 16 
307 165 172 16 
308 18 180 17 
309 17 180 165 
310 19 171 18 
311 171 180 18 
312 20 185 19 
313 19 185 171 
314 167 185 20 
315 165 173 172 
316 165 177 173 
317 165 180 177 
318 166 178 176 
319 176 184 166 
320 181 182 167 
321 182 186 167 
322 167 186 185 
323 173 174 168 
324 168 179 173 
325 174 183 168 
326 174 176 169 
327 169 183 174 
328 176 178 169 
329 176 182 170 
330 170 184 176 
331 170 182 181 
332 177 180 171 
333 171 186 177 
334 185 186 171 
335 173 179 172 
336 173 175 174 
337 173 177 175 
338 175 176 174 
339 175 182 176 
340 177 186 175 
341 175 186 182 
2 3 2 50
342 25 2 200 
343 2 38 200 
344 3 39 193 
345 44 3 192 
346 192 3 200 
347 3 193 200 
348 26 25 193 
349 193 25 200 
350 27 26 199 
351 26 193 199 
352 28 27 191 
353 191 27 199 
354 29 28 194 
355 28 191 194 
356 30 29 188 
357 188 29 194 
358 31 30 197 
359 30 188 197 
360 32 31 187 
361 187 31 197 
362 33 32 196 
363 32 187 196 
364 34 33 189 
365 189 33 196 
366 35 34 195 
367 34 189 195 
368 36 35 190 
369 190 35 195 
370 37 36 198 
371 36 190 198 
372 38 37 192 
373 192 37 198 
374 38 192 200 
375 39 40 191 
376 39 191 199 
377 193 39 199 
378 40 41 188 
379 40 188 194 
380 191 40 194 
381 41 42 187 
382 41 187 197 
383 188 41 197 
384 42 43 189 
385 187 42 196 
386 42 189 196 
387 43 44 190 
388 189 43 195 
389 43 190 195 
390 190 44 198 
391 44 192 198 
2 4 2 28
392 4 204 3 
393 3 207 4 
394 3 204 39 
395 44 207 3 
396 45 204 4 
397 4 207 50 
398 39 205 40 
399 39 204 45 
400 45 205 39 
401 40 203 41 
402 46 203 40 
403 40 205 46 
404 41 201 42 
405 47 201 41 
406 41 203 47 
407 42 202 43 
408 42 201 48 
409 48 202 42 
410 43 206 44 
411 43 202 49 
412 49 206 43 
413 44 206 50 
414 50 207 44 
415 46 205 45 
416 47 203 46 
417 48 201 47 
418 49 202 48 
419 50 206 49 
2 5 2 7
420 45 4 208 
421 4 50 208 
422 46 45 208 
423 47 46 208 
424 48 47 208 
425 49 48 208 
426 50 49 208 
2 6 2 284
427 5 317 51 
428 68 319 5 
429 73 317 5 
430 5 319 73 
431 69 316 6 
432 6 318 69 
433 74 318 6 
434 6 316 91 
435 51 298 52 
436 51 317 298 
437 52 221 53 
438 52 298 221 
439 53 290 54 
440 221 290 53 
441 54 212 55 
442 54 290 212 
443 55 286 56 
444 212 286 55 
445 56 220 57 
446 56 286 220 
447 57 306 58 
448 220 306 57 
449 58 282 59 
450 58 306 282 
451 59 215 60 
452 59 282 215 
453 60 291 61 
454 215 291 60 
455 61 304 62 
456 291 304 61 
457 62 214 63 
458 62 304 214 
459 63 267 64 
460 214 267 63 
461 64 313 65 
462 267 313 64 
463 65 209 66 
464 65 313 209 
465 66 312 67 
466 209 312 66 
467 67 292 68 
468 67 312 292 
469 292 319 68 
470 69 224 70 
471 70 274 69 
472 69 318 224 
473 274 316 69 
474 71 217 70 
475 70 273 71 
476 217 274 70 
477 224 273 70 
478 71 218 72 
479 72 225 71 
480 71 225 217 
481 71 273 218 
482 73 223 72 
483 72 275 73 
484 218 275 72 
485 223 225 72 
486 73 319 223 
487 275 317 73 
488 75 294 74 
489 294 318 74 
490 76 320 75 
491 75 320 294 
492 77 216 76 
493 216 320 76 
494 78 314 77 
495 77 314 216 
496 79 321 78 
497 270 314 78 
498 78 321 270 
499 80 219 79 
500 219 321 79 
501 81 305 80 
502 80 305 219 
503 82 211 81 
504 211 305 81 
505 83 307 82 
506 82 307 211 
507 84 265 83 
508 265 307 83 
509 85 210 84 
510 210 265 84 
511 86 288 85 
512 85 288 210 
513 87 284 86 
514 284 288 86 
515 88 213 87 
516 213 284 87 
517 89 283 88 
518 88 283 213 
519 90 222 89 
520 222 283 89 
521 91 297 90 
522 90 297 222 
523 91 316 297 
524 266 276 209 
525 209 313 266 
526 209 276 272 
527 272 312 209 
528 210 303 265 
529 288 289 210 
530 289 303 210 
531 264 278 211 
532 211 307 264 
533 211 278 268 
534 268 305 211 
535 212 287 286 
536 212 308 287 
537 290 308 212 
538 283 315 213 
539 213 285 284 
540 213 315 285 
541 214 302 267 
542 214 322 302 
543 304 322 214 
544 282 310 215 
545 215 324 291 
546 310 324 215 
547 269 280 216 
548 216 314 269 
549 280 281 216 
550 281 320 216 
551 225 226 217 
552 226 227 217 
553 227 274 217 
554 273 296 218 
555 218 295 275 
556 218 296 295 
557 299 321 219 
558 219 325 299 
559 305 325 219 
560 286 301 220 
561 301 326 220 
562 220 326 306 
563 221 311 290 
564 298 311 221 
565 222 297 227 
566 227 309 222 
567 222 309 283 
568 223 271 225 
569 223 292 271 
570 223 319 292 
571 224 293 273 
572 224 294 293 
573 224 318 294 
574 225 271 226 
575 226 228 227 
576 226 229 228 
577 226 271 229 
578 228 309 227 
579 227 297 274 
580 229 230 228 
581 230 231 228 
582 231 309 228 
583 229 276 230 
584 271 272 229 
585 272 276 229 
586 230 232 231 
587 230 233 232 
588 230 276 233 
589 232 315 231 
590 283 309 231 
591 231 315 283 
592 233 234 232 
593 234 323 232 
594 285 315 232 
595 232 323 285 
596 233 235 234 
597 233 266 235 
598 233 276 266 
599 235 236 234 
600 236 237 234 
601 237 323 234 
602 235 302 236 
603 266 267 235 
604 267 302 235 
605 236 238 237 
606 236 239 238 
607 236 302 239 
608 238 289 237 
609 289 300 237 
610 300 323 237 
611 239 240 238 
612 240 241 238 
613 241 289 238 
614 239 251 240 
615 239 322 251 
616 302 322 239 
617 240 242 241 
618 240 279 242 
619 251 279 240 
620 242 243 241 
621 243 303 241 
622 241 303 289 
623 242 244 243 
624 242 245 244 
625 242 279 245 
626 244 264 243 
627 264 265 243 
628 265 303 243 
629 245 246 244 
630 246 278 244 
631 244 278 264 
632 245 247 246 
633 245 310 247 
634 279 310 245 
635 247 248 246 
636 248 249 246 
637 249 278 246 
638 247 252 248 
639 247 282 252 
640 247 310 282 
641 248 250 249 
642 248 277 250 
643 252 277 248 
644 250 253 249 
645 253 268 249 
646 268 278 249 
647 250 254 253 
648 250 255 254 
649 250 277 255 
650 251 324 279 
651 251 304 291 
652 291 324 251 
653 251 322 304 
654 252 326 277 
655 282 306 252 
656 306 326 252 
657 254 299 253 
658 253 325 268 
659 299 325 253 
660 255 256 254 
661 256 257 254 
662 257 299 254 
663 255 287 256 
664 277 301 255 
665 255 301 287 
666 256 258 257 
667 256 259 258 
668 256 287 259 
669 258 269 257 
670 269 270 257 
671 270 299 257 
672 259 260 258 
673 260 280 258 
674 258 280 269 
675 259 261 260 
676 259 308 261 
677 287 308 259 
678 261 262 260 
679 262 263 260 
680 263 280 260 
681 261 311 262 
682 261 308 290 
683 290 311 261 
684 262 296 263 
685 295 296 262 
686 262 311 295 
687 263 281 280 
688 263 293 281 
689 263 296 293 
690 264 307 265 
691 266 313 267 
692 268 325 305 
693 269 314 270 
694 270 321 299 
695 271 292 272 
696 292 312 272 
697 293 296 273 
698 297 316 274 
699 295 298 275 
700 298 317 275 
701 277 326 301 
702 279 324 310 
703 293 294 281 
704 294 320 281 
705 285 300 284 
706 284 300 288 
707 285 323 300 
708 287 301 286 
709 288 300 289 
710 295 311 298 
2 7 2 79
711 51 349 5 
712 5 335 68 
713 5 349 335 
714 52 329 51 
715 329 349 51 
716 53 348 52 
717 52 348 329 
718 54 333 53 
719 333 348 53 
720 55 353 54 
721 54 353 333 
722 56 350 55 
723 350 353 55 
724 57 328 56 
725 328 350 56 
726 58 347 57 
727 57 347 328 
728 59 331 58 
729 331 347 58 
730 60 346 59 
731 59 346 331 
732 61 346 60 
733 62 330 61 
734 330 346 61 
735 63 352 62 
736 62 352 330 
737 64 332 63 
738 332 352 63 
739 65 354 64 
740 64 354 332 
741 66 327 65 
742 327 354 65 
743 67 355 66 
744 66 355 327 
745 68 334 67 
746 334 355 67 
747 68 335 334 
748 327 355 337 
749 337 356 327 
750 327 356 354 
751 328 347 342 
752 342 351 328 
753 328 351 350 
754 329 343 336 
755 336 349 329 
756 329 348 343 
757 345 346 330 
758 330 352 345 
759 331 344 342 
760 342 347 331 
761 331 346 344 
762 339 345 332 
763 332 356 339 
764 345 352 332 
765 354 356 332 
766 333 357 348 
767 353 357 333 
768 335 336 334 
769 336 337 334 
770 337 355 334 
771 335 349 336 
772 336 338 337 
773 336 343 338 
774 338 339 337 
775 339 356 337 
776 338 340 339 
777 338 341 340 
778 338 343 341 
779 340 345 339 
780 341 342 340 
781 342 344 340 
782 344 345 340 
783 341 351 342 
784 343 357 341 
785 341 357 351 
786 348 357 343 
787 344 346 345 
788 351 353 350 
789 351 357 353 
2 8 2 88
790 4 45 359 
791 50 4 360 
792 4 359 386 
793 360 4 386 
794 74 6 371 
795 6 91 378 
796 371 6 378 
797 45 46 364 
798 359 45 387 
799 45 364 387 
800 46 47 362 
801 46 362 365 
802 364 46 365 
803 47 48 358 
804 47 358 385 
805 362 47 385 
806 48 49 361 
807 358 48 384 
808 48 361 384 
809 49 50 363 
810 361 49 366 
811 49 363 366 
812 50 360 388 
813 363 50 388 
814 75 74 376 
815 74 371 376 
816 76 75 368 
817 368 75 376 
818 77 76 382 
819 76 368 382 
820 78 77 373 
821 373 77 382 
822 79 78 365 
823 365 78 373 
824 80 79 375 
825 79 365 375 
826 81 80 380 
827 80 375 380 
828 82 81 369 
829 369 81 380 
830 83 82 379 
831 82 369 379 
832 84 83 370 
833 370 83 379 
834 85 84 381 
835 84 370 381 
836 86 85 374 
837 374 85 381 
838 87 86 366 
839 366 86 374 
840 88 87 372 
841 87 366 372 
842 89 88 383 
843 88 372 383 
844 90 89 367 
845 367 89 383 
846 91 90 377 
847 90 367 377 
848 91 377 378 
849 369 358 379 
850 358 369 385 
851 358 370 379 
852 370 358 384 
853 359 368 376 
854 368 359 387 
855 371 359 376 
856 359 371 386 
857 367 360 377 
858 360 367 388 
859 377 360 378 
860 378 360 386 
861 361 366 374 
862 361 374 381 
863 361 381 384 
864 365 362 375 
865 375 362 380 
866 380 362 385 
867 366 363 372 
868 372 363 383 
869 383 363 388 
870 364 365 373 
871 364 373 382 
872 364 382 387 
873 367 383 388 
874 382 368 387 
875 369 380 385 
876 381 370 384 
877 371 378 386 
3 1 4 564
878 108 400 393 403 
879 137 403 396 404 
880 22 399 391 400 
881 116 400 391 402 
882 22 106 399 400 
883 40 39 395 397 
884 137 403 154 406 
885 137 396 403 406 
886 153 120 390 407 
887 108 107 400 403 
888 116 402 391 410 
889 153 390 120 402 
890 39 191 40 395 
891 389 400 399 403 
892 124 172 390 405 
893 146 391 116 400 
894 399 400 107 403 
895 183 132 396 405 
896 158 393 184 406 
897 389 390 398 411 
898 21 200 391 399 
899 395 397 39 399 
900 389 398 390 402 
901 389 397 395 399 
902 393 398 389 400 
903 170 184 158 393 
904 120 402 390 407 
905 191 122 395 399 
906 146 116 93 400 
907 132 405 96 413 
908 396 405 132 413 
909 39 191 395 399 
910 389 398 393 411 
911 155 395 399 403 
912 113 403 137 404 
913 391 397 389 399 
914 131 132 96 413 
915 172 165 390 405 
916 23 400 114 412 
917 124 390 126 405 
918 389 400 398 402 
919 392 395 389 397 
920 395 403 113 404 
921 389 394 392 397 
922 153 121 390 402 
923 121 401 390 402 
924 92 108 107 400 
925 21 146 22 391 
926 44 397 43 410 
927 3 391 200 399 
928 389 399 395 403 
929 119 394 164 402 
930 116 118 402 410 
931 183 168 132 405 
932 126 390 401 405 
933 390 396 389 401 
934 153 121 125 390 
935 114 400 398 412 
936 389 396 393 403 
937 125 126 124 390 
938 389 391 394 397 
939 137 113 154 403 
940 132 168 96 405 
941 121 125 390 401 
942 115 400 116 402 
943 121 394 401 402 
944 169 132 95 396 
945 23 145 400 412 
946 93 398 114 400 
947 389 391 399 400 
948 169 183 132 396 
949 126 390 125 401 
950 122 155 395 399 
951 112 395 155 403 
952 43 397 394 410 
953 174 183 396 405 
954 142 392 404 413 
955 146 22 391 400 
956 174 168 183 405 
957 393 400 145 412 
958 137 396 134 404 
959 3 397 391 399 
960 395 404 147 408 
961 21 163 200 399 
962 40 191 194 395 
963 396 401 390 413 
964 142 392 151 404 
965 195 394 98 410 
966 194 395 101 408 
967 108 393 110 403 
968 113 395 161 403 
969 158 104 170 393 
970 142 150 392 401 
971 93 116 115 400 
972 44 391 3 397 
973 393 396 389 411 
974 119 394 402 410 
975 110 393 158 406 
976 121 164 394 402 
977 43 394 195 410 
978 142 401 392 413 
979 122 194 191 395 
980 41 392 42 397 
981 390 389 396 411 
982 173 390 165 405 
983 398 400 115 402 
984 119 164 394 410 
985 389 401 396 413 
986 172 173 165 405 
987 161 395 112 403 
988 148 98 195 394 
989 3 39 397 399 
990 167 162 185 398 
991 184 393 176 406 
992 101 194 122 395 
993 120 156 402 407 
994 194 40 395 408 
995 126 405 401 413 
996 147 395 113 404 
997 108 110 109 403 
998 151 404 392 408 
999 195 148 394 409 
1000 389 394 391 402 
1001 110 403 393 406 
1002 92 107 106 400 
1003 208 39 3 204 
1004 107 399 106 400 
1005 185 144 171 398 
1006 95 132 134 396 
1007 184 170 176 393 
1008 389 393 400 403 
1009 94 390 165 407 
1010 106 163 21 399 
1011 396 403 389 404 
1012 44 43 208 206 
1013 39 40 205 208 
1014 203 40 41 208 
1015 201 41 42 208 
1016 202 42 43 208 
1017 21 200 159 391 
1018 112 161 122 395 
1019 94 153 390 407 
1020 109 107 108 403 
1021 173 177 165 390 
1022 95 396 137 406 
1023 44 391 397 410 
1024 169 396 95 406 
1025 391 400 389 402 
1026 94 125 124 390 
1027 177 390 173 411 
1028 40 397 395 408 
1029 389 395 392 404 
1030 195 394 43 409 
1031 112 122 155 395 
1032 156 398 402 407 
1033 149 401 394 409 
1034 111 403 110 406 
1035 208 3 44 207 
1036 394 397 43 409 
1037 94 153 125 390 
1038 134 137 95 396 
1039 110 104 158 393 
1040 22 92 106 400 
1041 186 185 171 398 
1042 121 394 133 401 
1043 153 123 120 407 
1044 197 100 187 408 
1045 398 411 186 412 
1046 113 147 161 395 
1047 196 187 139 409 
1048 41 187 42 392 
1049 121 119 164 402 
1050 42 43 397 409 
1051 40 41 397 408 
1052 186 407 177 411 
1053 187 392 140 409 
1054 187 140 392 408 
1055 392 394 389 401 
1056 391 402 394 410 
1057 169 174 183 396 
1058 393 403 396 406 
1059 186 167 185 398 
1060 182 186 411 412 
1061 117 116 118 402 
1062 159 146 21 391 
1063 92 23 145 400 
1064 116 391 105 410 
1065 194 101 188 408 
1066 23 93 114 400 
1067 152 147 404 408 
1068 150 392 149 409 
1069 3 208 44 397 
1070 44 208 43 397 
1071 3 39 208 397 
1072 40 208 39 397 
1073 41 208 40 397 
1074 43 208 42 397 
1075 42 208 41 397 
1076 165 390 177 407 
1077 394 397 391 410 
1078 185 162 144 398 
1079 153 120 121 402 
1080 149 392 401 409 
1081 395 389 403 404 
1082 190 43 195 410 
1083 195 189 148 409 
1084 389 396 404 413 
1085 39 199 191 399 
1086 126 130 405 413 
1087 171 398 144 407 
1088 162 398 167 412 
1089 119 402 118 410 
1090 149 392 150 401 
1091 101 395 147 408 
1092 93 115 398 400 
1093 398 407 186 411 
1094 154 403 111 406 
1095 151 152 404 408 
1096 133 394 149 401 
1097 396 390 405 413 
1098 155 399 107 403 
1099 134 404 396 413 
1100 191 102 122 399 
1101 142 128 150 401 
1102 149 394 133 409 
1103 146 93 22 400 
1104 150 151 142 392 
1105 170 393 104 412 
1106 174 396 406 411 
1107 389 390 401 402 
1108 42 397 392 409 
1109 41 392 397 408 
1110 135 142 151 404 
1111 166 97 184 406 
1112 389 392 401 404 
1113 193 200 163 399 
1114 133 121 164 394 
1115 390 405 173 411 
1116 139 187 140 409 
1117 164 98 148 394 
1118 113 137 136 404 
1119 176 393 182 411 
1120 124 179 172 405 
1121 193 3 200 399 
1122 93 115 114 398 
1123 401 405 390 413 
1124 177 407 390 411 
1125 395 397 392 408 
1126 187 100 140 408 
1127 145 104 108 393 
1128 44 192 3 391 
1129 137 134 136 404 
1130 389 401 394 402 
1131 182 176 170 393 
1132 200 192 159 391 
1133 195 43 189 409 
1134 139 140 392 409 
1135 392 397 394 409 
1136 194 188 40 408 
1137 105 116 146 391 
1138 119 98 164 410 
1139 142 404 135 413 
1140 98 394 164 410 
1141 133 394 148 409 
1142 108 104 110 393 
1143 390 402 398 407 
1144 192 105 391 410 
1145 101 122 161 395 
1146 190 195 98 410 
1147 100 392 140 408 
1148 174 396 169 406 
1149 150 139 140 392 
1150 104 393 145 412 
1151 389 404 401 413 
1152 398 400 393 412 
1153 126 128 130 413 
1154 138 95 137 406 
1155 200 3 192 391 
1156 191 199 102 399 
1157 192 391 44 410 
1158 124 129 179 405 
1159 150 139 392 409 
1160 122 102 155 399 
1161 175 186 177 411 
1162 121 127 125 401 
1163 126 401 128 413 
1164 117 115 116 402 
1165 138 178 169 406 
1166 128 401 142 413 
1167 134 135 404 413 
1168 24 23 114 412 
1169 401 404 392 413 
1170 138 169 95 406 
1171 176 406 393 411 
1172 42 392 187 409 
1173 187 392 41 408 
1174 175 177 173 411 
1175 174 405 396 411 
1176 174 406 176 411 
1177 186 398 171 407 
1178 105 159 192 391 
1179 100 151 140 392 
1180 94 165 180 407 
1181 101 147 141 408 
1182 129 124 126 405 
1183 392 404 395 408 
1184 115 156 398 402 
1185 186 167 398 412 
1186 182 393 170 412 
1187 394 401 392 409 
1188 120 123 156 407 
1189 113 161 112 403 
1190 155 107 109 403 
1191 97 158 184 406 
1192 105 146 159 391 
1193 96 405 130 413 
1194 127 126 125 401 
1195 174 173 405 411 
1196 393 406 396 411 
1197 118 116 105 410 
1198 97 110 158 406 
1199 151 392 100 408 
1200 119 117 118 402 
1201 393 182 411 412 
1202 114 398 162 412 
1203 188 101 141 408 
1204 96 168 179 405 
1205 111 110 97 406 
1206 192 198 105 410 
1207 3 193 39 399 
1208 134 131 135 413 
1209 99 148 189 409 
1210 96 179 129 405 
1211 127 121 133 401 
1212 103 171 144 407 
1213 126 130 129 405 
1214 24 145 23 412 
1215 161 147 101 395 
1216 149 150 128 401 
1217 99 133 148 409 
1218 111 109 110 403 
1219 396 405 390 411 
1220 147 113 136 404 
1221 166 178 97 406 
1222 192 44 198 410 
1223 131 96 130 413 
1224 135 151 152 404 
1225 147 152 141 408 
1226 175 182 186 411 
1227 94 123 153 407 
1228 140 151 150 392 
1229 164 148 133 394 
1230 168 14 96 179 
1231 103 144 398 407 
1232 144 162 114 398 
1233 152 151 100 408 
1234 179 14 96 129 
1235 113 111 154 403 
1236 124 179 15 172 
1237 170 104 160 412 
1238 174 169 176 406 
1239 138 137 154 406 
1240 133 149 127 401 
1241 190 44 43 410 
1242 94 180 123 407 
1243 115 117 156 402 
1244 179 173 172 405 
1245 393 411 398 412 
1246 23 92 22 400 
1247 193 143 199 399 
1248 166 184 176 406 
1249 160 104 145 412 
1250 150 149 139 409 
1251 29 188 194 101 
1252 103 398 156 407 
1253 129 179 15 124 
1254 390 407 398 411 
1255 193 163 143 399 
1256 181 170 160 412 
1257 99 149 133 409 
1258 106 143 163 399 
1259 93 23 22 400 
1260 193 199 39 399 
1261 96 129 130 405 
1262 97 154 111 406 
1263 119 121 120 402 
1264 105 198 157 410 
1265 30 100 197 408 
1266 94 124 16 172 
1267 165 94 16 172 
1268 174 175 173 411 
1269 196 42 187 409 
1270 197 187 41 408 
1271 138 97 178 406 
1272 184 8 170 158 
1273 136 152 147 404 
1274 24 162 167 412 
1275 24 114 162 412 
1276 119 118 98 410 
1277 119 120 117 402 
1278 167 1 24 412 
1279 176 182 175 411 
1280 199 143 102 399 
1281 167 181 1 412 
1282 50 44 208 206 
1283 203 41 47 208 
1284 205 45 39 208 
1285 201 47 41 208 
1286 202 48 42 208 
1287 201 42 48 208 
1288 167 24 1 162 
1289 180 171 18 407 
1290 1 181 24 412 
1291 50 208 44 207 
1292 4 3 208 207 
1293 45 39 208 204 
1294 3 4 208 204 
1295 156 117 120 402 
1296 134 135 136 404 
1297 34 148 195 189 
1298 174 176 175 411 
1299 101 194 28 122 
1300 195 148 35 98 
1301 112 155 109 403 
1302 190 195 35 98 
1303 29 188 101 141 
1304 122 194 28 191 
1305 111 112 109 403 
1306 139 99 196 409 
1307 158 8 170 104 
1308 128 142 130 413 
1309 126 127 128 401 
1310 115 156 103 398 
1311 186 182 167 412 
1312 99 33 139 196 
1313 115 144 114 398 
1314 115 103 144 398 
1315 189 196 99 409 
1316 107 143 106 399 
1317 17 94 165 180 
1318 42 189 43 409 
1319 41 40 188 408 
1320 174 173 168 405 
1321 142 135 131 413 
1322 178 176 169 406 
1323 113 112 111 403 
1324 33 99 189 196 
1325 148 34 99 189 
1326 102 143 107 399 
1327 205 40 46 208 
1328 203 46 40 208 
1329 208 43 49 206 
1330 202 43 49 208 
1331 30 141 100 408 
1332 18 123 180 407 
1333 186 171 177 407 
1334 98 157 190 410 
1335 17 94 180 123 
1336 102 107 155 399 
1337 37 105 192 198 
1338 7 160 181 170 
1339 168 173 179 405 
1340 185 167 20 162 
1341 7 160 170 104 
1342 105 157 118 410 
1343 37 105 198 157 
1344 96 13 14 168 
1345 181 160 24 412 
1346 160 145 24 412 
1347 157 190 36 98 
1348 149 128 127 401 
1349 154 97 138 406 
1350 95 11 12 169 
1351 166 176 178 406 
1352 201 48 47 208 
1353 32 31 140 187 
1354 4 208 50 207 
1355 170 8 7 104 
1356 208 4 45 204 
1357 103 156 123 407 
1358 136 135 152 404 
1359 198 190 157 410 
1360 193 26 199 143 
1361 165 177 180 407 
1362 130 142 131 413 
1363 100 141 152 408 
1364 171 103 18 407 
1365 190 35 36 98 
1366 160 24 1 181 
1367 144 185 20 162 
1368 149 99 139 409 
1369 190 198 44 410 
1370 100 31 30 197 
1371 122 28 27 191 
1372 191 27 122 102 
1373 105 38 37 192 
1374 163 2 21 200 
1375 166 10 9 97 
1376 200 2 21 159 
1377 105 159 38 192 
1378 94 16 17 165 
1379 1 20 167 162 
1380 98 118 157 410 
1381 180 177 171 407 
1382 182 170 181 412 
1383 102 191 27 199 
1384 203 47 46 208 
1385 205 46 45 208 
1386 202 49 48 208 
1387 50 208 49 206 
1388 15 14 179 129 
1389 103 123 18 407 
1390 28 29 194 101 
1391 33 32 139 196 
1392 124 15 16 172 
1393 181 167 182 412 
1394 180 18 17 123 
1395 143 193 25 163 
1396 26 102 199 143 
1397 185 20 19 144 
1398 42 196 189 409 
1399 197 41 188 408 
1400 188 29 30 141 
1401 25 26 193 143 
1402 183 13 12 132 
1403 190 36 198 157 
1404 138 10 11 178 
1405 163 25 2 200 
1406 200 38 2 159 
1407 148 35 34 195 
1408 99 34 33 189 
1409 163 193 25 200 
1410 159 200 38 192 
1411 19 18 171 103 
1412 1 7 160 181 
1413 27 26 102 199 
1414 198 36 37 157 
1415 184 9 8 158 
1416 399 22 21 106 
1417 399 21 22 391 
1418 400 108 145 92 
1419 400 145 108 393 
1420 413 132 134 131 
1421 413 134 132 396 
1422 132 168 13 96 
1423 13 168 132 183 
1424 94 172 390 124 
1425 390 172 94 165 
1426 169 132 12 95 
1427 12 132 169 183 
1428 100 187 31 197 
1429 31 187 100 140 
1430 97 184 9 166 
1431 97 9 184 158 
1432 187 139 32 196 
1433 187 32 139 140 
1434 138 169 11 95 
1435 11 169 138 178 
1436 97 178 10 138 
1437 97 10 178 166 
1438 171 144 19 103 
1439 19 144 171 185 
1440 408 30 188 197 
1441 408 188 30 141 
3 2 4 1166
1442 201 197 41 385 
1443 42 384 196 201 
1444 385 197 41 203 
1445 42 384 202 196 
1446 201 187 197 385 
1447 187 41 42 201 
1448 201 358 187 385 
1449 39 45 387 204 
1450 203 41 40 188 
1451 189 42 43 202 
1452 207 44 50 388 
1453 41 47 201 385 
1454 384 42 48 201 
1455 206 44 43 190 
1456 191 39 40 205 
1457 359 387 45 204 
1458 187 197 41 201 
1459 187 42 196 201 
1460 199 387 39 205 
1461 361 189 195 202 
1462 362 188 203 194 
1463 3 39 193 204 
1464 44 388 198 206 
1465 203 197 41 188 
1466 202 189 42 196 
1467 146 217 93 116 
1468 360 207 50 388 
1469 48 47 358 201 
1470 198 388 360 367 
1471 3 4 386 207 
1472 194 364 191 205 
1473 363 206 195 190 
1474 199 387 368 359 
1475 207 50 4 360 
1476 116 217 93 226 
1477 191 40 194 205 
1478 43 195 206 190 
1479 194 40 46 205 
1480 43 195 49 206 
1481 135 246 131 248 
1482 361 195 49 202 
1483 203 46 362 194 
1484 48 42 384 202 
1485 41 47 385 203 
1486 206 195 49 363 
1487 364 194 46 205 
1488 138 286 10 97 
1489 195 374 34 361 
1490 201 47 358 385 
1491 358 384 48 201 
1492 134 135 131 248 
1493 364 373 194 191 
1494 195 363 190 372 
1495 368 193 359 376 
1496 11 95 220 138 
1497 49 48 361 202 
1498 203 46 47 362 
1499 359 45 4 204 
1500 384 370 196 358 
1501 204 3 4 386 
1502 45 39 387 205 
1503 212 10 286 97 
1504 380 188 362 375 
1505 207 3 44 192 
1506 192 377 38 367 
1507 44 50 388 206 
1508 380 197 385 362 
1509 361 384 381 196 
1510 192 360 377 367 
1511 200 3 386 207 
1512 138 287 286 97 
1513 337 185 167 334 
1514 31 379 369 358 
1515 379 32 370 358 
1516 187 196 370 358 
1517 220 95 301 138 
1518 386 204 3 200 
1519 315 98 119 231 
1520 364 46 45 205 
1521 375 380 30 80 
1522 206 49 50 363 
1523 247 131 246 248 
1524 379 31 187 358 
1525 32 379 187 358 
1526 261 158 308 110 
1527 98 315 157 231 
1528 111 259 260 112 
1529 59 215 14 60 
1530 230 119 117 231 
1531 386 207 360 192 
1532 188 40 203 194 
1533 189 43 195 202 
1534 374 195 366 361 
1535 365 375 362 194 
1536 40 46 203 194 
1537 49 195 43 202 
1538 14 13 215 59 
1539 373 194 365 364 
1540 195 366 363 372 
1541 30 31 81 369 
1542 260 261 259 111 
1543 258 260 259 112 
1544 260 261 111 109 
1545 212 286 287 97 
1546 295 108 92 145 
1547 388 198 206 190 
1548 92 108 295 296 
1549 279 130 129 126 
1550 31 32 379 187 
1551 189 34 33 381 
1552 124 16 15 322 
1553 57 12 11 347 
1554 247 131 132 96 
1555 308 158 97 110 
1556 186 339 338 177 
1557 190 35 195 372 
1558 179 168 344 173 
1559 240 128 242 130 
1560 70 274 217 146 
1561 4 386 207 360 
1562 19 355 67 334 
1563 57 11 12 220 
1564 243 150 139 140 
1565 164 285 315 232 
1566 186 338 337 336 
1567 109 111 260 112 
1568 189 195 34 361 
1569 273 224 70 106 
1570 92 218 71 273 
1571 279 129 251 126 
1572 80 305 30 219 
1573 145 92 295 218 
1574 211 140 100 264 
1575 164 315 98 232 
1576 369 197 31 187 
1577 196 370 32 187 
1578 275 72 145 218 
1579 10 55 353 212 
1580 218 92 295 296 
1581 34 35 284 86 
1582 167 20 1 335 
1583 112 258 155 122 
1584 204 359 193 386 
1585 151 100 140 278 
1586 274 70 21 146 
1587 380 197 369 385 
1588 370 381 384 196 
1589 28 194 373 191 
1590 265 32 33 84 
1591 70 224 21 106 
1592 264 140 100 278 
1593 70 21 22 106 
1594 303 243 150 139 
1595 187 31 369 358 
1596 187 370 32 358 
1597 111 261 308 110 
1598 72 145 24 275 
1599 23 24 114 72 
1600 363 388 206 190 
1601 225 23 114 72 
1602 328 57 11 347 
1603 130 240 128 126 
1604 204 4 359 386 
1605 92 23 22 71 
1606 305 100 30 268 
1607 161 257 258 122 
1608 131 247 134 248 
1609 251 240 279 126 
1610 14 59 60 346 
1611 185 167 186 337 
1612 254 161 257 256 
1613 285 164 315 98 
1614 22 92 71 273 
1615 195 34 374 366 
1616 365 29 375 194 
1617 23 92 218 71 
1618 67 20 19 334 
1619 22 273 70 106 
1620 111 308 97 110 
1621 141 30 100 268 
1622 371 2 6 74 
1623 14 13 59 346 
1624 193 199 368 359 
1625 118 119 98 231 
1626 264 100 211 278 
1627 150 243 242 244 
1628 351 342 169 341 
1629 211 307 31 140 
1630 25 26 75 376 
1631 234 153 235 233 
1632 306 57 12 220 
1633 71 93 22 217 
1634 256 154 287 255 
1635 234 120 232 119 
1636 122 269 258 280 
1637 2 371 318 74 
1638 87 88 372 213 
1639 326 95 301 220 
1640 70 22 21 146 
1641 286 56 11 350 
1642 56 57 11 328 
1643 273 92 296 107 
1644 230 232 119 231 
1645 16 15 62 352 
1646 70 21 224 69 
1647 24 23 145 72 
1648 69 70 21 274 
1649 141 305 30 268 
1650 161 257 256 258 
1651 31 82 81 369 
1652 93 22 23 71 
1653 81 31 30 211 
1654 71 225 93 217 
1655 87 284 35 86 
1656 77 76 27 382 
1657 101 29 141 219 
1658 118 117 119 231 
1659 242 142 150 244 
1660 22 70 217 146 
1661 19 327 66 355 
1662 70 71 22 217 
1663 92 273 106 107 
1664 54 353 55 212 
1665 115 225 114 271 
1666 341 169 351 176 
1667 360 192 198 367 
1668 259 154 256 111 
1669 273 71 22 70 
1670 225 114 93 115 
1671 153 234 120 233 
1672 119 232 315 231 
1673 384 361 48 202 
1674 47 385 203 362 
1675 23 145 72 218 
1676 218 72 23 71 
1677 95 252 134 132 
1678 134 247 131 132 
1679 246 142 135 131 
1680 376 75 25 74 
1681 235 153 236 302 
1682 287 154 256 259 
1683 56 286 55 350 
1684 146 217 116 227 
1685 85 288 86 374 
1686 34 35 86 366 
1687 171 19 185 355 
1688 252 95 326 306 
1689 125 236 153 302 
1690 72 225 23 71 
1691 242 240 130 279 
1692 333 8 9 53 
1693 313 17 18 123 
1694 20 167 334 335 
1695 122 258 155 280 
1696 129 15 14 291 
1697 114 223 225 72 
1698 115 225 271 226 
1699 72 24 73 275 
1700 151 142 246 244 
1701 337 339 186 177 
1702 197 380 188 362 
1703 381 189 361 196 
1704 261 158 290 308 
1705 118 98 157 231 
1706 169 178 351 176 
1707 350 351 178 353 
1708 255 254 136 250 
1709 234 120 233 232 
1710 93 225 115 226 
1711 337 167 186 336 
1712 321 28 29 79 
1713 136 249 135 248 
1714 315 283 157 231 
1715 225 93 23 71 
1716 76 26 27 382 
1717 231 117 230 228 
1718 230 233 120 232 
1719 375 79 80 219 
1720 372 35 87 213 
1721 124 15 129 251 
1722 345 179 344 173 
1723 174 169 342 341 
1724 258 256 161 112 
1725 282 13 12 58 
1726 91 38 377 90 
1727 122 27 28 314 
1728 35 87 86 366 
1729 289 127 238 237 
1730 338 175 341 182 
1731 224 106 143 163 
1732 343 176 357 184 
1733 283 213 315 98 
1734 182 341 338 343 
1735 232 120 230 119 
1736 223 114 24 72 
1737 226 116 217 227 
1738 5 1 319 335 
1739 246 135 249 248 
1740 96 14 13 215 
1741 75 26 368 376 
1742 125 127 121 236 
1743 331 12 13 58 
1744 84 32 33 370 
1745 365 29 28 79 
1746 247 134 252 132 
1747 86 288 34 374 
1748 366 195 35 372 
1749 61 14 15 291 
1750 277 252 134 95 
1751 128 241 127 240 
1752 140 211 307 264 
1753 378 6 2 316 
1754 128 142 242 130 
1755 107 155 263 281 
1756 141 29 30 219 
1757 364 45 387 205 
1758 186 338 339 337 
1759 96 13 132 282 
1760 261 260 262 109 
1761 161 258 112 122 
1762 53 8 290 221 
1763 254 136 113 255 
1764 341 174 169 176 
1765 242 128 241 243 
1766 124 239 125 302 
1767 33 210 265 84 
1768 60 14 61 291 
1769 122 269 27 314 
1770 286 11 220 138 
1771 207 386 200 192 
1772 134 250 248 277 
1773 50 388 206 363 
1774 31 211 140 100 
1775 81 82 31 211 
1776 110 111 261 109 
1777 197 380 30 188 
1778 33 189 381 196 
1779 271 223 114 144 
1780 22 92 273 106 
1781 73 223 24 72 
1782 120 233 230 156 
1783 167 337 334 336 
1784 219 141 101 299 
1785 49 366 195 361 
1786 365 362 46 194 
1787 27 269 216 314 
1788 182 175 341 176 
1789 229 115 156 272 
1790 139 32 33 265 
1791 29 101 321 219 
1792 30 211 100 305 
1793 199 368 26 193 
1794 305 30 380 80 
1795 211 100 305 268 
1796 368 382 387 199 
1797 30 305 141 219 
1798 290 9 8 53 
1799 232 98 164 119 
1800 32 31 307 140 
1801 213 36 35 98 
1802 341 182 176 343 
1803 264 151 140 278 
1804 144 223 114 162 
1805 236 234 153 235 
1806 197 31 30 369 
1807 370 32 33 196 
1808 259 261 308 111 
1809 198 192 37 367 
1810 243 149 303 150 
1811 148 285 35 98 
1812 209 313 18 266 
1813 59 13 331 346 
1814 246 142 131 245 
1815 194 365 28 373 
1816 30 380 197 369 
1817 370 33 381 196 
1818 151 142 135 246 
1819 388 198 383 367 
1820 267 16 214 63 
1821 172 332 165 345 
1822 243 128 241 150 
1823 172 352 332 345 
1824 107 296 273 293 
1825 61 15 330 62 
1826 13 14 168 346 
1827 194 46 365 364 
1828 195 366 49 363 
1829 356 177 171 180 
1830 132 306 252 282 
1831 18 19 327 66 
1832 240 130 279 126 
1833 119 120 230 117 
1834 92 218 273 296 
1835 266 313 18 123 
1836 242 142 128 150 
1837 84 265 32 83 
1838 192 38 37 367 
1839 286 220 301 138 
1840 125 124 302 94 
1841 124 239 126 125 
1842 12 306 132 282 
1843 13 96 215 282 
1844 193 204 386 200 
1845 267 214 16 94 
1846 225 93 217 226 
1847 217 93 22 146 
1848 67 292 20 68 
1849 240 127 128 126 
1850 387 382 364 199 
1851 52 298 8 221 
1852 107 273 106 293 
1853 247 134 248 252 
1854 283 36 37 89 
1855 292 20 19 67 
1856 137 301 277 95 
1857 148 300 288 284 
1858 186 338 336 182 
1859 134 136 135 248 
1860 302 153 125 94 
1861 177 171 337 356 
1862 36 35 190 372 
1863 250 249 136 248 
1864 245 242 142 130 
1865 129 124 251 126 
1866 353 9 10 212 
1867 150 149 303 139 
1868 246 278 151 244 
1869 245 142 131 130 
1870 88 36 283 89 
1871 145 23 92 218 
1872 213 35 285 98 
1873 240 239 238 126 
1874 210 85 33 288 
1875 6 378 91 316 
1876 35 285 148 284 
1877 269 258 257 122 
1878 259 308 287 111 
1879 127 237 121 236 
1880 265 243 139 140 
1881 114 93 23 225 
1882 220 57 11 56 
1883 66 209 19 312 
1884 37 38 297 90 
1885 224 106 293 143 
1886 125 239 238 236 
1887 185 19 20 334 
1888 178 10 350 353 
1889 342 174 341 340 
1890 159 274 146 105 
1891 241 238 127 240 
1892 160 145 104 275 
1893 257 161 101 122 
1894 290 54 9 53 
1895 19 171 327 355 
1896 215 96 310 282 
1897 168 331 13 346 
1898 120 234 121 119 
1899 365 375 29 79 
1900 374 34 86 366 
1901 8 7 298 52 
1902 199 39 191 205 
1903 225 223 114 271 
1904 318 6 2 74 
1905 95 301 277 326 
1906 301 287 154 255 
1907 127 289 133 237 
1908 372 88 36 213 
1909 206 198 44 190 
1910 214 15 16 322 
1911 142 246 244 245 
1912 109 260 262 263 
1913 266 18 209 123 
1914 383 37 36 89 
1915 211 31 30 100 
1916 380 81 305 80 
1917 285 164 323 232 
1918 36 35 372 213 
1919 245 131 246 247 
1920 9 353 54 212 
1921 277 134 137 95 
1922 286 11 10 350 
1923 284 35 285 213 
1924 166 178 351 353 
1925 254 253 136 250 
1926 354 65 64 313 
1927 243 242 128 150 
1928 65 18 327 66 
1929 15 124 322 251 
1930 122 27 269 216 
1931 333 9 357 353 
1932 324 96 14 129 
1933 243 241 149 150 
1934 185 337 171 355 
1935 336 167 186 182 
1936 213 283 36 98 
1937 17 16 267 63 
1938 357 176 351 166 
1939 239 251 124 126 
1940 303 241 149 243 
1941 30 81 211 305 
1942 33 210 139 265 
1943 294 224 293 143 
1944 88 283 36 213 
1945 38 91 297 90 
1946 299 253 141 147 
1947 123 235 153 233 
1948 124 16 214 94 
1949 132 13 12 282 
1950 14 15 346 61 
1951 166 357 9 353 
1952 231 118 117 228 
1953 244 242 142 245 
1954 322 304 15 251 
1955 113 136 137 255 
1956 77 314 78 373 
1957 212 9 10 97 
1958 380 81 30 305 
1959 332 339 165 345 
1960 300 288 99 148 
1961 343 170 176 184 
1962 253 141 147 152 
1963 54 333 9 53 
1964 165 177 356 180 
1965 307 31 32 379 
1966 319 1 20 335 
1967 69 21 2 159 
1968 104 145 295 275 
1969 289 288 99 300 
1970 96 310 131 130 
1971 230 233 276 156 
1972 259 256 258 112 
1973 124 322 239 302 
1974 105 297 227 222 
1975 256 259 111 112 
1976 117 229 230 228 
1977 333 9 8 184 
1978 131 247 310 96 
1979 124 214 16 322 
1980 278 135 249 246 
1981 174 344 183 168 
1982 266 267 313 123 
1983 219 101 321 299 
1984 301 137 154 138 
1985 175 339 173 177 
1986 174 341 175 176 
1987 272 19 312 144 
1988 254 136 147 113 
1989 137 301 95 138 
1990 110 261 262 109 
1991 324 129 291 251 
1992 380 30 81 369 
1993 163 224 21 69 
1994 300 164 285 148 
1995 12 331 347 58 
1996 227 309 105 222 
1997 115 117 116 228 
1998 315 98 232 119 
1999 155 280 263 281 
2000 308 97 287 111 
2001 178 350 11 328 
2002 262 108 109 107 
2003 97 290 158 308 
2004 9 8 158 290 
2005 242 241 128 240 
2006 157 283 315 98 
2007 373 27 28 191 
2008 336 329 181 343 
2009 297 38 37 105 
2010 79 375 29 219 
2011 141 325 305 268 
2012 73 24 1 160 
2013 216 76 27 77 
2014 344 342 174 183 
2015 159 69 21 274 
2016 150 151 264 244 
2017 134 248 252 277 
2018 282 12 306 58 
2019 298 7 51 52 
2020 386 359 193 371 
2021 163 21 2 69 
2022 102 281 107 143 
2023 350 56 11 328 
2024 75 294 25 74 
2025 11 10 350 178 
2026 161 254 113 256 
2027 97 212 290 308 
2028 78 365 28 79 
2029 263 262 109 107 
2030 75 368 320 76 
2031 212 54 9 290 
2032 117 115 229 228 
2033 267 17 313 123 
2034 143 294 224 163 
2035 101 28 29 321 
2036 371 25 2 318 
2037 272 115 103 144 
2038 173 340 339 175 
2039 8 348 333 184 
2040 62 15 330 352 
2041 298 7 8 104 
2042 311 295 298 104 
2043 312 355 66 67 
2044 115 103 156 272 
2045 223 24 162 73 
2046 267 302 214 94 
2047 99 33 34 288 
2048 309 105 118 116 
2049 148 288 34 284 
2050 330 346 15 61 
2051 211 100 268 278 
2052 221 8 158 104 
2053 370 84 32 83 
2054 170 182 181 343 
2055 164 323 300 285 
2056 76 27 26 216 
2057 19 18 209 66 
2058 287 154 259 111 
2059 16 332 165 172 
2060 160 73 24 275 
2061 76 368 26 382 
2062 305 325 141 219 
2063 174 344 168 173 
2064 383 36 363 372 
2065 174 341 340 175 
2066 128 149 241 150 
2067 332 16 352 172 
2068 145 160 24 275 
2069 21 159 274 146 
2070 24 1 162 73 
2071 294 25 26 75 
2072 182 338 336 343 
2073 329 349 336 181 
2074 321 78 28 79 
2075 357 341 176 343 
2076 106 224 21 163 
2077 185 20 167 334 
2078 133 289 127 149 
2079 15 61 304 62 
2080 301 154 137 255 
2081 7 8 329 52 
2082 258 155 260 112 
2083 214 304 15 322 
2084 161 101 299 257 
2085 344 346 179 345 
2086 336 334 167 335 
2087 152 135 249 278 
2088 223 271 292 144 
2089 284 288 34 86 
2090 228 116 115 226 
2091 204 193 3 200 
2092 337 339 177 356 
2093 316 69 2 159 
2094 170 176 182 343 
2095 319 68 5 335 
2096 228 115 229 226 
2097 324 129 251 279 
2098 166 10 178 353 
2099 126 239 127 125 
2100 35 284 87 213 
2101 186 338 175 177 
2102 312 292 19 67 
2103 348 343 357 184 
2104 2 38 378 316 
2105 99 289 133 149 
2106 108 262 296 107 
2107 19 185 355 334 
2108 302 124 214 94 
2109 167 1 336 335 
2110 356 180 327 354 
2111 383 36 88 89 
2112 253 141 325 299 
2113 281 107 155 102 
2114 303 99 210 139 
2115 184 357 9 166 
2116 335 1 336 349 
2117 273 224 106 293 
2118 298 8 221 104 
2119 94 235 153 123 
2120 182 336 181 343 
2121 349 5 1 317 
2122 136 134 137 277 
2123 134 136 250 277 
2124 288 99 210 289 
2125 1 7 349 317 
2126 154 287 97 111 
2127 251 239 240 126 
2128 290 8 158 221 
2129 209 103 266 123 
2130 263 296 262 107 
2131 357 9 333 184 
2132 2 386 371 378 
2133 283 157 36 98 
2134 6 2 69 318 
2135 2 25 371 200 
2136 38 2 378 200 
2137 299 141 101 147 
2138 317 73 1 160 
2139 148 285 300 284 
2140 133 300 99 148 
2141 1 5 319 73 
2142 364 373 27 382 
2143 110 108 311 104 
2144 270 101 28 122 
2145 286 301 287 138 
2146 175 340 339 338 
2147 207 200 3 192 
2148 346 60 14 61 
2149 210 303 139 265 
2150 148 34 35 284 
2151 68 20 67 334 
2152 9 212 290 97 
2153 120 123 153 233 
2154 310 245 131 130 
2155 325 141 219 299 
2156 84 33 85 381 
2157 99 289 300 133 
2158 339 165 173 177 
2159 236 125 239 302 
2160 178 351 350 328 
2161 209 103 276 266 
2162 320 294 26 75 
2163 302 235 153 94 
2164 294 293 281 143 
2165 135 152 151 278 
2166 257 161 254 147 
2167 151 150 142 244 
2168 122 28 270 314 
2169 104 295 298 275 
2170 26 320 76 216 
2171 132 252 247 282 
2172 145 295 275 218 
2173 16 17 267 94 
2174 299 161 257 147 
2175 274 159 297 105 
2176 286 10 11 138 
2177 260 155 258 280 
2178 18 19 171 327 
2179 60 215 14 291 
2180 55 286 10 350 
2181 351 357 166 353 
2182 108 262 295 296 
2183 151 140 150 264 
2184 254 136 253 147 
2185 127 238 239 126 
2186 82 307 31 211 
2187 36 37 157 283 
2188 103 209 18 123 
2189 18 65 209 66 
2190 289 241 238 149 
2191 96 310 130 279 
2192 344 331 168 346 
2193 243 150 264 244 
2194 157 105 118 309 
2195 94 267 235 123 
2196 37 36 198 383 
2197 231 283 157 309 
2198 16 15 352 172 
2199 115 272 271 144 
2200 144 292 223 162 
2201 183 169 12 347 
2202 249 136 253 250 
2203 17 267 94 123 
2204 99 303 149 139 
2205 68 292 20 319 
2206 58 282 13 59 
2207 276 230 156 229 
2208 34 99 288 148 
2209 329 8 7 170 
2210 348 329 8 52 
2211 140 265 243 264 
2212 190 363 36 372 
2213 245 242 130 279 
2214 314 27 28 373 
2215 371 25 318 74 
2216 64 17 267 63 
2217 290 158 9 97 
2218 229 156 276 272 
2219 27 314 77 373 
2220 28 78 270 314 
2221 9 10 166 353 
2222 159 316 69 274 
2223 311 221 158 104 
2224 176 178 351 166 
2225 347 57 306 58 
2226 349 1 336 181 
2227 327 171 337 355 
2228 344 174 340 173 
2229 28 78 314 373 
2230 270 78 28 321 
2231 121 125 236 153 
2232 341 340 175 338 
2233 239 238 127 125 
2234 216 320 281 102 
2235 263 107 281 293 
2236 311 298 221 104 
2237 158 290 311 261 
2238 243 150 140 264 
2239 14 324 129 291 
2240 237 127 238 236 
2241 185 337 355 334 
2242 257 254 299 147 
2243 216 269 122 102 
2244 15 14 346 179 
2245 238 127 240 126 
2246 136 134 250 248 
2247 26 320 216 102 
2248 5 349 51 317 
2249 170 181 329 343 
2250 296 92 108 107 
2251 237 133 127 121 
2252 272 229 115 271 
2253 234 121 236 153 
2254 176 351 341 357 
2255 260 155 280 263 
2256 342 169 183 347 
2257 24 114 223 162 
2258 26 27 382 199 
2259 339 165 177 356 
2260 169 342 328 347 
2261 255 136 137 250 
2262 91 378 38 316 
2263 171 356 180 327 
2264 95 277 252 326 
2265 340 345 344 173 
2266 160 317 73 275 
2267 278 151 135 246 
2268 317 1 7 160 
2269 274 217 146 227 
2270 216 280 269 102 
2271 379 307 31 82 
2272 382 368 26 199 
2273 8 53 52 221 
2274 156 230 120 117 
2275 97 287 212 308 
2276 339 175 338 177 
2277 103 19 209 312 
2278 2 38 316 159 
2279 154 287 301 138 
2280 101 270 257 122 
2281 383 198 37 367 
2282 216 281 280 102 
2283 33 210 99 139 
2284 110 262 108 109 
2285 27 373 364 191 
2286 161 299 101 147 
2287 11 220 56 286 
2288 2 6 69 316 
2289 216 122 27 102 
2290 107 281 293 143 
2291 152 249 268 278 
2292 260 109 155 263 
2293 276 103 209 272 
2294 174 342 344 340 
2295 83 307 379 82 
2296 155 109 260 112 
2297 265 139 32 140 
2298 303 210 99 289 
2299 336 1 167 181 
2300 340 339 345 173 
2301 330 179 346 345 
2302 158 290 221 311 
2303 145 295 108 104 
2304 320 294 281 143 
2305 289 300 133 237 
2306 53 348 8 52 
2307 2 163 69 318 
2308 151 152 100 278 
2309 238 127 289 149 
2310 339 165 345 173 
2311 58 13 331 59 
2312 333 348 357 184 
2313 292 19 20 144 
2314 63 17 16 332 
2315 250 136 137 277 
2316 171 337 186 177 
2317 179 346 15 330 
2318 114 115 271 144 
2319 261 311 158 110 
2320 110 311 158 104 
2321 125 238 127 236 
2322 381 84 33 370 
2323 299 254 253 147 
2324 153 234 121 120 
2325 367 37 383 89 
2326 63 16 62 352 
2327 367 90 37 89 
2328 298 160 104 275 
2329 154 287 138 97 
2330 99 210 33 288 
2331 250 137 255 277 
2332 355 66 19 312 
2333 7 1 349 181 
2334 371 25 193 200 
2335 354 18 65 313 
2336 200 378 38 192 
2337 307 265 32 140 
2338 183 331 342 347 
2339 320 281 26 143 
2340 176 357 184 166 
2341 147 136 253 152 
2342 229 230 156 117 
2343 164 285 148 98 
2344 382 191 364 199 
2345 170 329 8 348 
2346 271 229 115 226 
2347 332 17 16 165 
2348 329 51 7 52 
2349 19 103 272 312 
2350 193 386 371 200 
2351 331 342 344 183 
2352 180 356 332 354 
2353 165 339 332 356 
2354 268 100 152 278 
2355 113 256 154 111 
2356 320 26 281 102 
2357 20 68 319 335 
2358 19 355 312 67 
2359 116 93 115 226 
2360 226 228 116 227 
2361 342 328 351 169 
2362 170 343 348 184 
2363 319 20 1 162 
2364 63 64 17 332 
2365 366 35 87 372 
2366 51 349 7 317 
2367 311 262 108 110 
2368 32 83 307 379 
2369 26 294 320 143 
2370 278 264 151 244 
2371 37 297 222 90 
2372 222 283 37 89 
2373 328 178 351 169 
2374 272 103 209 312 
2375 12 57 306 347 
2376 116 117 118 228 
2377 124 322 251 239 
2378 105 274 146 227 
2379 35 34 195 366 
2380 282 215 13 59 
2381 13 12 331 183 
2382 1 5 73 317 
2383 11 178 328 169 
2384 333 348 8 53 
2385 10 55 350 353 
2386 371 6 2 378 
2387 123 266 235 233 
2388 113 256 111 112 
2389 10 286 55 212 
2390 165 172 345 173 
2391 266 235 267 123 
2392 210 33 85 84 
2393 69 163 224 318 
2394 352 15 330 172 
2395 325 141 253 268 
2396 272 103 19 144 
2397 300 133 164 148 
2398 198 36 190 383 
2399 310 96 324 279 
2400 83 265 32 307 
2401 293 106 107 143 
2402 162 1 319 73 
2403 378 2 386 200 
2404 345 172 179 173 
2405 215 96 14 324 
2406 253 136 249 152 
2407 137 301 255 277 
2408 352 63 16 332 
2409 147 161 254 113 
2410 28 29 365 194 
2411 26 25 294 143 
2412 298 51 7 317 
2413 348 8 170 184 
2414 295 311 262 108 
2415 183 331 13 168 
2416 163 2 25 318 
2417 322 124 214 302 
2418 309 157 105 222 
2419 190 36 363 383 
2420 141 253 268 152 
2421 371 386 2 200 
2422 268 100 141 152 
2423 373 77 27 382 
2424 377 378 38 91 
2425 295 311 108 104 
2426 382 27 191 199 
2427 332 64 17 354 
2428 289 99 303 149 
2429 162 319 223 73 
2430 276 266 123 233 
2431 309 283 157 222 
2432 105 297 274 227 
2433 347 306 12 58 
2434 256 113 161 112 
2435 118 309 116 228 
2436 231 157 118 309 
2437 300 133 323 164 
2438 15 61 291 304 
2439 154 256 113 255 
2440 297 91 38 316 
2441 82 31 379 369 
2442 303 243 139 265 
2443 292 271 272 144 
2444 65 327 18 354 
2445 270 269 122 314 
2446 26 320 368 76 
2447 354 64 17 313 
2448 191 364 27 382 
2449 38 297 159 105 
2450 140 307 265 264 
2451 37 297 105 222 
2452 262 311 261 110 
2453 280 122 269 102 
2454 280 155 122 102 
2455 303 241 289 149 
2456 241 127 149 128 
2457 318 25 294 74 
2458 236 237 121 234 
2459 353 333 9 54 
2460 346 168 344 179 
2461 135 249 136 152 
2462 130 310 245 279 
2463 312 19 292 144 
2464 113 137 154 255 
2465 356 171 337 327 
2466 155 280 281 102 
2467 327 180 18 354 
2468 103 276 266 123 
2469 247 245 131 310 
2470 344 331 183 168 
2471 16 62 214 63 
2472 28 101 270 321 
2473 332 165 356 180 
2474 256 254 113 255 
2475 51 7 349 329 
2476 249 268 253 152 
2477 17 18 354 313 
2478 83 32 370 379 
2479 312 292 272 144 
2480 172 330 352 345 
2481 107 263 296 293 
2482 173 174 340 175 
2483 342 169 174 183 
2484 101 270 299 257 
2485 7 349 329 181 
2486 78 28 365 373 
2487 7 298 160 104 
2488 27 26 216 102 
2489 18 19 209 103 
2490 157 37 105 222 
2491 180 18 171 327 
2492 167 336 181 182 
2493 116 309 105 227 
2494 88 36 383 372 
2495 18 65 313 209 
2496 127 238 241 149 
2497 334 68 20 335 
2498 25 371 376 74 
2499 314 216 27 77 
2500 324 14 215 291 
2501 368 320 26 75 
2502 235 302 267 94 
2503 156 115 229 117 
2504 116 105 146 227 
2505 109 155 263 107 
2506 26 281 102 143 
2507 12 331 183 347 
2508 186 185 337 171 
2509 20 292 144 162 
2510 103 276 156 272 
2511 175 338 186 182 
2512 163 294 224 318 
2513 329 170 343 348 
2514 269 257 270 122 
2515 25 294 143 163 
2516 309 116 228 227 
2517 17 18 180 354 
2518 315 213 285 98 
2519 90 222 37 89 
2520 283 37 157 222 
2521 181 329 7 170 
2522 223 292 319 162 
2523 133 121 323 164 
2524 103 276 123 156 
2525 179 330 172 345 
2526 180 332 17 354 
2527 118 231 309 228 
2528 346 14 168 179 
2529 165 332 17 180 
2530 101 270 321 299 
2531 319 292 20 162 
2532 330 15 179 172 
2533 297 316 159 274 
2534 298 317 160 275 
2535 29 321 79 219 
2536 64 267 17 313 
2537 25 294 163 318 
2538 38 297 316 159 
2539 323 121 237 234 
2540 335 5 1 349 
2541 317 7 298 160 
2542 121 237 133 323 
2543 300 133 237 323 
2544 310 96 215 324 
2545 30 375 188 380 
2546 188 375 30 29 
2547 376 26 193 25 
2548 376 193 26 368 
2549 34 361 381 189 
2550 381 361 34 374 
2551 188 375 194 362 
2552 194 375 188 29 
2553 367 38 90 377 
2554 367 90 38 37 
2555 96 247 282 132 
2556 96 282 247 310 
2557 362 197 203 188 
2558 362 203 197 385 
2559 361 196 202 384 
2560 202 196 361 189 
2561 132 306 95 252 
2562 132 95 306 12 
2563 385 187 369 358 
2564 385 369 187 197 
2565 358 196 201 187 
2566 358 201 196 384 
2567 374 288 381 85 
2568 374 381 288 34 
2569 33 381 288 85 
2570 33 288 381 34 
2571 251 15 291 304 
2572 251 291 15 129 
2573 15 214 62 304 
2574 62 214 15 16 
2575 95 220 12 11 
2576 11 347 169 328 
2577 169 347 11 12 
2578 156 233 123 120 
2579 156 123 233 276 
2580 119 234 164 232 
2581 119 164 234 121 
2582 323 164 234 232 
2583 323 234 164 121 
2584 219 375 30 80 
2585 219 30 375 29 
2586 377 192 378 360 
2587 378 192 377 38 
2588 199 359 204 387 
2589 204 359 199 193 
2590 204 39 199 387 
2591 199 39 204 193 
2592 95 306 220 326 
2593 220 306 95 12 
2594 279 96 129 130 
2595 279 129 96 324 
2596 44 198 207 192 
2597 44 207 198 388 
2598 360 207 198 192 
2599 360 198 207 388 
2600 192 386 378 360 
2601 192 378 386 200 
2602 193 376 371 359 
2603 371 376 193 25 
2604 364 199 205 387 
2605 205 199 364 191 
2606 388 190 383 198 
2607 383 190 388 363 
$EndElements
